<?xml version="1.0" encoding="UTF-8"?>
<!DOCTYPE svg PUBLIC "-//W3C//DTD SVG 1.1//EN" "http://www.w3.org/Graphics/SVG/1.1/DTD/svg11.dtd">
<svg xmlns="http://www.w3.org/2000/svg" xmlns:xlink="http://www.w3.org/1999/xlink" version="1.1" width="881px" height="282px" viewBox="-0.5 -0.5 881 282" style="background-color: rgb(255, 255, 255);"><defs><clipPath id="mx-clip-20-50-40-30-0"><rect x="20" y="50" width="40" height="30"/></clipPath><clipPath id="mx-clip-66-50-314-30-0"><rect x="66" y="50" width="314" height="30"/></clipPath><clipPath id="mx-clip-66-80-314-30-0"><rect x="66" y="80" width="314" height="30"/></clipPath><clipPath id="mx-clip-66-110-314-30-0"><rect x="66" y="110" width="314" height="30"/></clipPath><clipPath id="mx-clip-66-140-314-30-0"><rect x="66" y="140" width="314" height="30"/></clipPath><clipPath id="mx-clip-66-170-314-30-0"><rect x="66" y="170" width="314" height="30"/></clipPath><clipPath id="mx-clip-66-200-314-30-0"><rect x="66" y="200" width="314" height="30"/></clipPath><clipPath id="mx-clip-66-230-314-30-0"><rect x="66" y="230" width="314" height="30"/></clipPath><clipPath id="mx-clip-500-50-40-30-0"><rect x="500" y="50" width="40" height="30"/></clipPath><clipPath id="mx-clip-546-50-314-30-0"><rect x="546" y="50" width="314" height="30"/></clipPath><clipPath id="mx-clip-546-80-314-30-0"><rect x="546" y="80" width="314" height="30"/></clipPath><clipPath id="mx-clip-546-110-314-30-0"><rect x="546" y="110" width="314" height="30"/></clipPath><style type="text/css">@import url(https://fonts.googleapis.com/css?family=Permanent+Marker);&#xa;</style></defs><g><path d="M 20 50 L 20 20 L 380 20 L 380 50" fill="#f5f5f5" stroke="#666666" stroke-miterlimit="10" pointer-events="all"/><path d="M 20 50 L 20 260 L 380 260 L 380 50" fill="none" stroke="#666666" stroke-miterlimit="10" pointer-events="none"/><path d="M 20 50 L 380 50" fill="none" stroke="#666666" stroke-miterlimit="10" pointer-events="none"/><path d="M 60 50 L 60 80 L 60 110 L 60 140 L 60 170 L 60 200 L 60 230 L 60 260" fill="none" stroke="#666666" stroke-miterlimit="10" pointer-events="none"/><g fill="#333333" font-family="Helvetica" font-weight="bold" text-anchor="middle" font-size="12px"><text x="199.5" y="39.5">user_activities</text></g><path d="M 20 50 M 380 50 M 380 80 L 20 80" fill="none" stroke="rgb(0, 0, 0)" stroke-linecap="square" stroke-miterlimit="10" pointer-events="none"/><rect x="20" y="50" width="40" height="30" fill="none" stroke="none" pointer-events="all"/><path d="M 20 50 M 60 50 M 60 80 M 20 80" fill="none" stroke="rgb(0, 0, 0)" stroke-linecap="square" stroke-miterlimit="10" pointer-events="all"/><g fill="rgb(0, 0, 0)" font-family="Helvetica" font-weight="bold" clip-path="url(#mx-clip-20-50-40-30-0)" text-anchor="middle" font-size="12px"><text x="39.5" y="69.5">PK</text></g><rect x="60" y="50" width="320" height="30" fill="none" stroke="none" pointer-events="all"/><path d="M 60 50 M 380 50 M 380 80 M 60 80" fill="none" stroke="rgb(0, 0, 0)" stroke-linecap="square" stroke-miterlimit="10" pointer-events="all"/><g fill="rgb(0, 0, 0)" font-family="Helvetica" font-weight="bold" text-decoration="underline" clip-path="url(#mx-clip-66-50-314-30-0)" font-size="12px"><text x="67.5" y="69.5">uuid uuid NOT NULL</text></g><path d="M 20 80 M 380 80 M 380 110 M 20 110" fill="none" stroke="rgb(0, 0, 0)" stroke-linecap="square" stroke-miterlimit="10" pointer-events="none"/><rect x="20" y="80" width="40" height="30" fill="none" stroke="none" pointer-events="all"/><path d="M 20 80 M 60 80 M 60 110 M 20 110" fill="none" stroke="rgb(0, 0, 0)" stroke-linecap="square" stroke-miterlimit="10" pointer-events="all"/><rect x="60" y="80" width="320" height="30" fill="none" stroke="none" pointer-events="all"/><path d="M 60 80 M 380 80 M 380 110 M 60 110" fill="none" stroke="rgb(0, 0, 0)" stroke-linecap="square" stroke-miterlimit="10" pointer-events="all"/><g fill="rgb(0, 0, 0)" font-family="Helvetica" clip-path="url(#mx-clip-66-80-314-30-0)" font-size="12px"><text x="67.5" y="99.5">timestamp timestamp without time zone NOT NULL</text></g><path d="M 20 110 M 380 110 M 380 140 M 20 140" fill="none" stroke="rgb(0, 0, 0)" stroke-linecap="square" stroke-miterlimit="10" pointer-events="none"/><rect x="20" y="110" width="40" height="30" fill="none" stroke="none" pointer-events="all"/><path d="M 20 110 M 60 110 M 60 140 M 20 140" fill="none" stroke="rgb(0, 0, 0)" stroke-linecap="square" stroke-miterlimit="10" pointer-events="all"/><rect x="60" y="110" width="320" height="30" fill="none" stroke="none" pointer-events="all"/><path d="M 60 110 M 380 110 M 380 140 M 60 140" fill="none" stroke="rgb(0, 0, 0)" stroke-linecap="square" stroke-miterlimit="10" pointer-events="all"/><g fill="rgb(0, 0, 0)" font-family="Helvetica" clip-path="url(#mx-clip-66-110-314-30-0)" font-size="12px"><text x="67.5" y="129.5">user_identifier varchar</text></g><path d="M 20 140 M 380 140 M 380 170 M 20 170" fill="none" stroke="rgb(0, 0, 0)" stroke-linecap="square" stroke-miterlimit="10" pointer-events="none"/><rect x="20" y="140" width="40" height="30" fill="none" stroke="none" pointer-events="all"/><path d="M 20 140 M 60 140 M 60 170 M 20 170" fill="none" stroke="rgb(0, 0, 0)" stroke-linecap="square" stroke-miterlimit="10" pointer-events="all"/><rect x="60" y="140" width="320" height="30" fill="none" stroke="none" pointer-events="all"/><path d="M 60 140 M 380 140 M 380 170 M 60 170" fill="none" stroke="rgb(0, 0, 0)" stroke-linecap="square" stroke-miterlimit="10" pointer-events="all"/><g fill="rgb(0, 0, 0)" font-family="Helvetica" clip-path="url(#mx-clip-66-140-314-30-0)" font-size="12px"><text x="67.5" y="159.5">action varchar NOT NULL</text></g><path d="M 20 170 M 380 170 M 380 200 M 20 200" fill="none" stroke="rgb(0, 0, 0)" stroke-linecap="square" stroke-miterlimit="10" pointer-events="none"/><rect x="20" y="170" width="40" height="30" fill="none" stroke="none" pointer-events="all"/><path d="M 20 170 M 60 170 M 60 200 M 20 200" fill="none" stroke="rgb(0, 0, 0)" stroke-linecap="square" stroke-miterlimit="10" pointer-events="all"/><rect x="60" y="170" width="320" height="30" fill="none" stroke="none" pointer-events="all"/><path d="M 60 170 M 380 170 M 380 200 M 60 200" fill="none" stroke="rgb(0, 0, 0)" stroke-linecap="square" stroke-miterlimit="10" pointer-events="all"/><g fill="rgb(0, 0, 0)" font-family="Helvetica" clip-path="url(#mx-clip-66-170-314-30-0)" font-size="12px"><text x="67.5" y="189.5">snapshot_before json</text></g><path d="M 20 200 M 380 200 M 380 230 M 20 230" fill="none" stroke="rgb(0, 0, 0)" stroke-linecap="square" stroke-miterlimit="10" pointer-events="none"/><rect x="20" y="200" width="40" height="30" fill="none" stroke="none" pointer-events="all"/><path d="M 20 200 M 60 200 M 60 230 M 20 230" fill="none" stroke="rgb(0, 0, 0)" stroke-linecap="square" stroke-miterlimit="10" pointer-events="all"/><rect x="60" y="200" width="320" height="30" fill="none" stroke="none" pointer-events="all"/><path d="M 60 200 M 380 200 M 380 230 M 60 230" fill="none" stroke="rgb(0, 0, 0)" stroke-linecap="square" stroke-miterlimit="10" pointer-events="all"/><g fill="rgb(0, 0, 0)" font-family="Helvetica" clip-path="url(#mx-clip-66-200-314-30-0)" font-size="12px"><text x="67.5" y="219.5">snapshot_after json</text></g><path d="M 20 230 M 380 230 M 380 260 M 20 260" fill="none" stroke="rgb(0, 0, 0)" stroke-linecap="square" stroke-miterlimit="10" pointer-events="none"/><rect x="20" y="230" width="40" height="30" fill="none" stroke="none" pointer-events="all"/><path d="M 20 230 M 60 230 M 60 260 M 20 260" fill="none" stroke="rgb(0, 0, 0)" stroke-linecap="square" stroke-miterlimit="10" pointer-events="all"/><rect x="60" y="230" width="320" height="30" fill="none" stroke="none" pointer-events="all"/><path d="M 60 230 M 380 230 M 380 260 M 60 260" fill="none" stroke="rgb(0, 0, 0)" stroke-linecap="square" stroke-miterlimit="10" pointer-events="all"/><g fill="rgb(0, 0, 0)" font-family="Helvetica" clip-path="url(#mx-clip-66-230-314-30-0)" font-size="12px"><text x="67.5" y="249.5">meta json NOT NULL</text></g><path d="M 500 50 L 500 20 L 860 20 L 860 50" fill="#f5f5f5" stroke="rgb(0, 0, 0)" stroke-miterlimit="10" pointer-events="all"/><path d="M 500 50 L 500 140 L 860 140 L 860 50" fill="none" stroke="rgb(0, 0, 0)" stroke-miterlimit="10" pointer-events="none"/><path d="M 500 50 L 860 50" fill="none" stroke="rgb(0, 0, 0)" stroke-miterlimit="10" pointer-events="none"/><path d="M 540 50 L 540 80 L 540 110 L 540 140" fill="none" stroke="rgb(0, 0, 0)" stroke-miterlimit="10" pointer-events="none"/><g fill="#333333" font-family="Helvetica" font-weight="bold" text-anchor="middle" font-size="12px"><text x="679.5" y="39.5">user_activity_entities</text></g><path d="M 500 50 M 860 50 M 860 80 M 500 80" fill="none" stroke="rgb(0, 0, 0)" stroke-linecap="square" stroke-miterlimit="10" pointer-events="none"/><rect x="500" y="50" width="40" height="30" fill="none" stroke="none" pointer-events="all"/><path d="M 500 50 M 540 50 M 540 80 M 500 80" fill="none" stroke="rgb(0, 0, 0)" stroke-linecap="square" stroke-miterlimit="10" pointer-events="all"/><g fill="rgb(0, 0, 0)" font-family="Helvetica" font-weight="bold" clip-path="url(#mx-clip-500-50-40-30-0)" text-anchor="middle" font-size="12px"><text x="519.5" y="69.5">PK</text></g><rect x="540" y="50" width="320" height="30" fill="none" stroke="none" pointer-events="all"/><path d="M 540 50 M 860 50 M 860 80 M 540 80" fill="none" stroke="rgb(0, 0, 0)" stroke-linecap="square" stroke-miterlimit="10" pointer-events="all"/><g fill="rgb(0, 0, 0)" font-family="Helvetica" font-weight="bold" text-decoration="underline" clip-path="url(#mx-clip-546-50-314-30-0)" font-size="12px"><text x="547.5" y="69.5">user_activity_uuid uuid NOT NULL</text></g><path d="M 500 80 M 860 80 M 860 110 M 500 110" fill="none" stroke="rgb(0, 0, 0)" stroke-linecap="square" stroke-miterlimit="10" pointer-events="none"/><rect x="500" y="80" width="40" height="30" fill="none" stroke="none" pointer-events="all"/><path d="M 500 80 M 540 80 M 540 110 M 500 110" fill="none" stroke="rgb(0, 0, 0)" stroke-linecap="square" stroke-miterlimit="10" pointer-events="all"/><rect x="540" y="80" width="320" height="30" fill="none" stroke="none" pointer-events="all"/><path d="M 540 80 M 860 80 M 860 110 M 540 110" fill="none" stroke="rgb(0, 0, 0)" stroke-linecap="square" stroke-miterlimit="10" pointer-events="all"/><g fill="rgb(0, 0, 0)" font-family="Helvetica" font-weight="bold" text-decoration="underline" clip-path="url(#mx-clip-546-80-314-30-0)" font-size="12px"><text x="547.5" y="99.5">entity_id varchar NOT NULL</text></g><path d="M 500 110 M 860 110 M 860 140 L 500 140" fill="none" stroke="rgb(0, 0, 0)" stroke-linecap="square" stroke-miterlimit="10" pointer-events="none"/><rect x="500" y="110" width="40" height="30" fill="none" stroke="none" pointer-events="all"/><path d="M 500 110 M 540 110 M 540 140 M 500 140" fill="none" stroke="rgb(0, 0, 0)" stroke-linecap="square" stroke-miterlimit="10" pointer-events="all"/><rect x="540" y="110" width="320" height="30" fill="none" stroke="none" pointer-events="all"/><path d="M 540 110 M 860 110 M 860 140 M 540 140" fill="none" stroke="rgb(0, 0, 0)" stroke-linecap="square" stroke-miterlimit="10" pointer-events="all"/><g fill="rgb(0, 0, 0)" font-family="Helvetica" font-weight="bold" text-decoration="underline" clip-path="url(#mx-clip-546-110-314-30-0)" font-size="12px"><text x="547.5" y="129.5">enity_type varchar NOT NULL</text></g><path d="M 380 65 L 500 65" fill="none" stroke="rgb(0, 0, 0)" stroke-miterlimit="10" pointer-events="stroke"/><path d="M 384 61 L 384 69" fill="none" stroke="rgb(0, 0, 0)" stroke-miterlimit="10" pointer-events="all"/><path d="M 500 61 L 492 65 L 500 69" fill="none" stroke="rgb(0, 0, 0)" stroke-miterlimit="10" pointer-events="all"/></g></svg>