<svg xmlns="http://www.w3.org/2000/svg" viewBox="0 0 2500 1396">
    <g fill="#C00">
        <path d="M987.7451 213.78431h529.41176c0-2.45098 0-9.80392 4.90196-19.60784H982.84314c2.45098 4.90196 4.90196 12.2549 4.90196 19.60784zm612.7451 53.92157c-17.15687 0-19.60785-4.90196-19.60785-4.90196V453.9804s7.35294-2.45098 17.15687-2.45098V309.37255c-36.76471-14.70588 2.45098-41.66667 2.45098-41.66667zM933.82353 253l-9.80392-4.90196h-2.45098c12.2549 22.05882-12.2549 17.15686-12.2549 17.15686 4.90196 4.90196 9.80392 7.35294 9.80392 7.35294s24.5098 17.15687-7.35294 31.86275V451.5294c9.80392 0 14.70588 2.45098 17.15686 2.45098 0 0 7.35294 4.90196 12.2549 7.35294 2.45098 0 2.45098 2.45098 2.45098 2.45098l4.90196 4.90196v17.15687s0 2.45098-2.45098 2.45098c0 0-2.45098 2.45098-9.80392 0v2.45098c2.45098 2.45098 7.35294 7.35294 7.35294 9.80392 0 0 2.45098 2.45098 2.45098 4.90196 0 0 0 2.45098 2.45098 4.90196v19.60784c0 2.45098 0 2.45098-2.45098 4.90197l-2.45098 2.45097c-2.45098 2.45099-4.90196 2.45099-7.35294 2.45099 0 0-4.90196 0-12.2549-2.45099h-2.45098v12.2549c0 4.90197 2.45098 9.80393 2.45098 14.70589v12.2549s0 7.35294-2.45098 12.2549c-4.90196 4.90196-19.60785 4.90196-19.60785 4.90196v66.17647c2.45098 90.68628 71.07844 132.35295 71.07844 132.35295 4.90196 2.45098 7.35294 4.90196 12.2549 7.35294 24.5098 17.15686 51.47059 29.41176 78.43137 41.66666 49.01961 19.60785 85.78431 26.96079 85.78431 26.96079 7.35295 2.45098 14.70589 4.90196 22.05883 4.90196 61.27451 12.2549 134.80392 0 134.80392 0 22.05882-4.90196 39.21569-9.80392 51.47059-12.2549 7.35294-2.45098 12.2549-4.90196 17.15686-4.90196 4.90196-2.45098 9.80392-2.45098 9.80392-2.45098 12.2549-4.90197 26.96079-7.35294 39.21569-12.2549 44.11764-17.15687 71.07843-34.31373 80.88235-41.66667 2.45098-2.45098 4.90196-2.45098 4.90196-2.45098 39.21569-29.41177 51.47059-49.01961 56.37255-53.92157v-2.45098c12.2549-17.15687 17.15686-39.21569 22.05882-56.37255 0-7.35294 2.45098-12.2549 2.45098-17.15686v-73.52941s-4.90196 2.45097-19.60784 2.45097v68.62746c0 66.17647-41.66667 98.03921-41.66667 98.03921L958.33333 233.39216v22.05882s0 2.45098-2.45098 4.90196v2.45098s-2.45098 0-2.45098 2.45098c-2.45098 0-2.45098-2.45098-4.90196-2.45098l-4.90196-2.45098-2.45098-2.45098C938.7255 255.45098 936.27451 253 933.82353 253c2.45098 0 0 0 0 0zm-330.88235-14.70588c17.15686 9.80392 39.21568 19.60784 56.37254 29.41176 14.70589 7.35294 34.31373 14.70588 44.11765 19.60784 22.05883 9.80393 49.01961 19.60785 71.07843 26.96079 26.96079 9.80392 46.56863 17.15686 68.62745 29.41176-2.45097-7.35294-2.45097-17.15686-4.90196-24.5098-4.90196-17.15686-61.2745-36.7647-110.29411-56.37255-22.05883-7.35294-41.66667-17.15686-63.7255-26.96078-19.60784-9.80392-34.31372-22.05883-53.92156-29.41177-9.80392-4.90196-22.05883-17.15686-29.41177-22.05882-9.80392-7.35294-29.41176-19.60784-41.66666-29.41177-12.2549-9.80392-22.05883-24.5098-34.31373-34.31372-2.45098 9.80392-7.35294 26.96078-2.45098 31.86274 19.60784 46.56863 61.27451 63.7255 100.4902 85.78432z"/>
        <path d="M517.15686 233.39216c19.60785 17.15686 44.11765 31.86274 71.07843 44.11764 29.41177 14.70589 61.27451 29.41177 95.58824 41.66667 19.60784 7.35294 39.21569 17.15686 56.37255 24.5098 12.2549 4.90197 24.5098 7.35295 34.31372 12.2549 22.05883 9.80393 41.66667 19.60785 63.7255 29.41177 7.35294 2.45098 12.2549 9.80392 14.70588 9.80392 4.90196 0-2.45098-29.41176-4.90196-31.86274-7.35294-4.90196-46.56863-24.5098-61.27451-29.41177-29.41177-9.80392-58.82353-22.05882-85.78432-34.31372-12.2549-4.90196-26.96078-12.2549-39.21568-19.60785-22.05883-9.80392-53.92157-24.5098-75.9804-36.7647-17.15686-9.80392-29.41176-17.15686-44.11764-26.96079C512.2549 199.07843 500 174.56863 497.54902 177.01961c-2.45098 7.35294-4.90196 26.96078 0 34.31372C500 216.2353 512.2549 228.4902 517.15686 233.39216zM686.27451 52.0196c36.7647 17.15686 0 24.5098-24.5098 24.5098 9.80392 4.90196 24.5098 9.80392 29.41176 22.05883 2.45098-19.60785 29.41177-26.96079 66.17647-9.80393 9.80392 4.90196 29.41177 22.05883 0 24.5098 4.90196 7.35295 12.2549 7.35295 9.80392 19.60785-2.45098 26.96078-61.2745 9.80392-75.98039 2.45098l-14.70588-14.70588v17.15686c-2.45098 9.80392-7.35294 17.15686-9.80392 24.5098-4.90196 29.41177 31.86274 36.76471 53.92157 36.76471 2.45098 2.45098 2.45098 7.35294 2.45098 9.80392 0 4.90196 2.45098 9.80392 9.80392 7.35294 4.90196-4.90196 2.45098-19.60784 0-26.96078s-12.2549 4.90196-14.70588-7.35294c0-14.70588 12.2549 2.45098 7.35294-22.05883 0-4.90196 2.45098-4.90196 7.35294-2.45097 0 4.90196 0 7.35294-2.45098 9.80392-2.45098 4.90196-2.45098 7.35294-2.45098 9.80392 36.7647 17.15686 85.78431 34.31372 110.29411-14.70588 4.90197-7.35295 2.45099-17.15687-2.45098-24.5098-4.90196-7.35295-12.2549-12.25491-22.05882-12.25491-9.80392 0-17.15686-2.45098-26.96078 4.90196 26.96078 4.90196 24.5098 29.41177-4.90197 31.86275-7.35294 0-19.60784 2.45098-24.5098-2.45099v-4.90196c19.60784-7.35294 14.70588-14.70588 19.60784-34.31372 0-7.35294 7.35294-14.70588 4.90197-24.5098-2.45099-14.70589-46.56863-29.41177-66.17647-34.31373-7.35295 0-7.35295-9.80392-12.2549-14.70588-14.70589-12.2549-46.56863-14.70589-66.17648-14.70589-24.5098 0-24.5098 2.45098-19.60784 9.80393 7.35294 12.2549 44.11765 0 68.62745 9.80392zm7.35294 132.35294c-4.90196 0-7.35294-2.45098-9.80392-2.45098 0-2.45098-2.45098-4.90196 0-4.90196s7.35294-2.45098 12.2549 0c9.80392-2.45098 2.45098 7.35294-2.45098 7.35294zm14.70588 2.45098c-2.45098 0-2.45098-4.90196 2.45098-7.35294 2.45098 0 0 7.35294-2.45098 7.35294zm-19.60784-29.41177c-2.45098 0-2.45098-9.80392 7.35294-9.80392 2.45098 0 12.2549 4.90196 17.15686 4.90196 9.80393 2.45098-19.60784 2.45098-24.5098 4.90196zM519.60784 338.78431c-14.70588-7.35294-39.21568-24.5098-46.56862-31.86274-4.90197-4.90196-19.60785-14.70588-26.96079-19.60784-12.2549-9.80393-24.5098-26.96079-22.05882-17.15687 4.90196 14.70588 12.2549 29.41177 19.60784 44.11765 9.80392 14.70588 26.96078 29.41176 41.66667 39.21569 9.80392 4.90196 24.5098 12.2549 31.86274 19.60784s14.70588 26.96078 14.70588 36.7647c17.15687 80.88236-24.5098 144.60785-53.92156 191.17648-7.35294 12.2549-17.15687 22.05882-24.5098 36.7647-9.80393 29.41177 4.90195 71.07843 41.66666 56.37255 34.31372-19.60784 14.70588-51.47059 31.86274-85.78431 9.80393-19.60785 26.96079-12.2549 31.86275-22.05883 2.45098-7.35294 7.35294-19.60784 12.2549-29.41176 9.80392-22.05882 26.96079-49.0196 31.86275-63.7255 2.45098-7.35293 7.35294-44.11764 4.90196-53.92156 0-2.45098-14.70588-9.80392-17.15686-12.2549 14.70588 49.0196-4.90197 85.78431-31.86275 120.09804-7.35294 7.35294-12.2549 24.5098-14.70588 29.41176-14.70589 0-29.41177 19.60784-31.86275 26.96079-9.80392 19.60784-4.90196 49.0196-14.70588 66.17647-4.90196 7.35294-19.60784 14.70588-26.96078 4.90196-4.90196-7.35294-4.90196-26.96079 0-36.7647 7.35294-17.15687 22.05882-29.41177 29.41176-44.11766 19.60784-31.86274 36.7647-68.62745 46.56863-110.29411 4.90196-26.96079 2.45098-58.82353-2.45098-85.78432-2.45098-12.2549-9.80393-24.5098-14.70589-36.7647-4.90196-4.90196-7.35294-14.70589-9.80392-22.05883zm46.56863-218.13725c9.80392 9.80392 12.2549 9.80392 7.35294-4.90196-2.45098-4.90196 0-9.80392 0-12.2549-2.45098-2.45098-7.35294-4.90196-9.80392-7.35295-9.80392-7.35294-17.15686-22.05882-14.70588-39.21568 2.45098-9.80392 2.45098-14.70588 9.80392-12.2549 4.90196 2.45098 14.70588 12.2549 17.15686 17.15686 12.2549 14.70588 7.35294 24.5098 9.80392 39.21569 0 12.2549 2.45098 22.05882 12.2549 36.7647 2.45099 2.45098 7.35295 7.35294 7.35295 4.90196 0-2.45098 2.45098-19.60784 4.90196-22.05882 2.45098-2.45098 9.80392-17.15686 12.2549-29.41177C625 76.52941 620.09804 61.82353 612.7451 49.56863c-9.80392-17.15687-17.15686-19.60785-39.21569-19.60785-4.90196 0-14.70588 0-17.15686 2.45098-12.2549 12.2549-19.60784 29.41177-17.15686 46.56863 2.45098 19.60785 17.15686 29.41177 26.96078 41.66667z"/>
        <path d="M541.66667 147.60784c26.96078 24.5098 61.2745 44.11765 93.13725 66.17647 14.70588 9.80392 44.11765 24.5098 49.0196 24.5098 2.45099 0 9.80393 4.90197 14.7059 7.35295 4.90195 2.45098 88.23529 34.31372 95.58823 36.7647 12.2549 2.45098 26.96078 14.70589 26.96078 12.2549-4.90196-17.15686-14.70588-26.96078-24.5098-36.7647-12.2549-9.80392-29.41177-19.60784-46.56863-24.5098-14.70588-4.90196-31.86275-12.2549-49.0196-17.15687-46.56864-17.15686-85.78432-44.11764-122.54903-71.07843-7.35294-4.90196-14.70588-14.70588-22.05882-19.60784-9.80392-7.35294-19.60784-17.15686-26.96079-26.96078-4.90196-7.35295-4.90196-19.60785-4.90196-29.41177-2.45098 7.35294-9.80392 22.05882-12.2549 31.86275 0 7.35294 0 9.80392 4.90196 17.15686 7.35294 12.2549 17.15686 22.05882 24.5098 29.41176zM693.62745 441.7255c14.70588 0 41.66667 2.45098 71.07843 4.90196 9.80392 0-22.05882-12.2549-36.7647-17.15686-17.15687-4.90196-34.31373-12.2549-51.4706-17.15687-29.41176-9.80392-51.47058-19.60784-80.88234-29.41176-19.60785-7.35294-29.41177-14.70588-36.76471-19.60784-2.45098-2.45098-19.60784-14.70589-17.15686-7.35294 2.45098 7.35294 4.90196 9.80392 9.80392 19.60784 19.60784 44.11765 90.68627 63.72549 142.15686 66.17647zM509.80392 321.62745c0-7.35294-9.80392-22.05882-12.2549-26.96078-4.90196-9.80393-4.90196-14.70589-7.35294-19.60785-4.90196-2.45098-17.15686-12.2549-24.5098-19.60784-22.05883-14.70588-36.76471-41.66667-49.01961-53.92157-2.45098 0-4.90196 19.60784-2.45098 26.96079 9.80392 31.86274 36.7647 53.92156 95.58823 93.13725zm1517.15686-102.94118c0 9.80393-4.90196 26.96079-4.90196 34.31373 2.45098 4.90196 53.92157-51.47059 58.82353-71.07843 2.45098-7.35294-7.35294-19.60785-12.2549-26.96079-4.90196 9.80393-9.80392 19.60785-14.70588 26.96079-24.50981 29.41176-24.50981 26.96078-26.96079 36.7647zm2.45098-53.92156c0 7.35294 2.45099 14.70588 2.45099 24.5098 2.45098 2.45098 22.05882-29.41177 22.05882-34.31373 7.35294-14.70588-2.45098-24.5098-12.2549-29.41176-4.90196 4.90196-9.80392 12.2549-9.80392 17.15686-4.90197 2.45098-4.90197 7.35294-2.45099 22.05883zm-24.5098 66.17647c-49.01961 46.56862-156.86274 90.68627-193.62745 102.94117-41.66667 14.70589-80.88235 34.31373-120.09804 51.4706-7.35294 2.45097-51.47059 24.5098-53.92157 29.41176v24.5098c39.21569-22.05882 83.33334-39.21569 122.54902-58.82353 29.41177-12.2549 63.72549-22.05882 95.58824-31.86275 41.66666-14.70588 80.88235-31.86274 117.64706-56.37254 14.70588-9.80393 24.5098-19.60785 29.41176-31.86275 2.45098-7.35294 4.90196-19.60784 2.45098-29.41176zm-63.72549 161.7647c9.80392-12.2549 17.15686-24.5098 22.05882-41.66666-51.47058 34.31372-112.74509 51.47058-174.0196 71.07843-19.60785 7.35294-66.17647 24.5098-53.92157 22.05882 41.66666-7.35294 78.43137 0 112.7451-7.35294 41.66666-7.35294 71.07843-17.15686 93.13725-44.11765zm85.78431-262.2549c2.45098-7.35294 9.80393-19.60784-9.80392-22.05882-4.90196-2.45098-7.35294 2.45098 2.45098 12.2549 2.45098 2.45098 2.45098 14.70588 7.35294 9.80392zm-1546.56862 0c2.45098 0 2.45098-7.35294 4.90196-7.35294 2.45098-4.90196 4.90196-9.80392 4.90196-12.2549 0-2.45098 0-2.45098-2.45098-2.45098 0 0-14.70588 2.45098-14.70588 7.35294 0 4.90196 2.45098 14.70588 7.35294 14.70588zm154.41176 215.68627c41.66667 14.70589 80.88236 24.5098 93.13726 31.86275 12.2549 4.90196 29.41176 12.2549 41.66666 17.15686 34.31373 14.70588 68.62745 31.86275 95.58824 46.56863 2.45098 0 0-26.96078-7.35294-31.86275-24.5098-12.2549-49.01961-26.96078-73.52941-36.7647-26.96079-12.2549-56.37255-24.5098-83.33334-36.7647-12.2549-4.90197-22.05882-9.80393-36.7647-14.70589-9.80393-4.90196-19.60785-7.35294-29.41177-12.2549-71.07843-24.5098-110.29412-58.82353-122.54902-66.17647-2.45098-2.45098-12.2549-9.80392-14.70588-12.2549-2.45098 0 0 12.2549 0 12.2549 2.45098 17.15686 7.35294 24.5098 17.15686 34.31372 9.80392 12.2549 29.41177 22.05883 46.56863 29.41177 24.5098 17.15686 49.0196 29.41176 73.52941 39.21569zm-161.7647-161.7647c2.45098-4.90196 2.45098-14.70588 2.45098-26.96079 0-14.70588-2.45098-19.60784-7.35295-26.96078-2.45097-2.45098-2.45097-7.35294-4.90196-7.35294-4.90196 2.45098-14.70588 9.80392-14.70588 17.15686 0 7.35294 4.90196 17.15686 7.35294 24.5098 4.90196 4.90197 14.70589 22.05883 17.15687 19.60785z"/>
        <path d="M1931.37255 561.82353c7.35294 17.15686 12.2549 31.86274 14.70588 31.86274 2.45098 2.45098 7.35294 2.45098 12.2549 2.45098 7.35294 2.45098 17.15687 12.2549 19.60785 19.60785 12.2549 26.96078 0 78.43137 36.7647 83.33333 12.2549 2.45098 24.50981-2.45098 29.41177-9.80392 7.35294-7.35294 9.80392-22.05882 9.80392-36.7647-7.35294-31.86275-24.50981-44.11765-36.76471-66.17648-29.41176-41.66666-73.52941-142.15686-29.41176-210.78431 7.35294-12.2549 26.96078-17.15686 39.21568-24.5098 12.25491-7.35295 24.50981-22.05883 34.31373-31.86275 4.90196-4.90196 26.96078-44.11765 19.60784-49.0196-19.60784 19.60784-41.66666 36.7647-66.17647 53.92156-9.80392 4.90196-22.05882 9.80392-29.41176 19.60784-7.35294 9.80393-9.80392 22.05883-14.70588 31.86275-36.76471 80.88235 0 181.37255 41.66666 237.7451 7.35294 9.80392 39.21569 53.92157 14.70588 71.07843-7.35294 4.90196-19.60784 0-22.05882-7.35294-9.80392-17.15686-4.90196-46.56863-12.2549-66.17647-2.45098-7.35294-12.2549-19.60785-22.05882-22.05883-2.45099-2.45098-7.35295 0-9.80393-2.45098-2.45098-2.45098-7.35294-12.2549-12.2549-19.60784-12.2549-19.60784-31.86274-41.66667-39.21568-68.62745-4.90197-17.15686-7.35295-34.31373-2.45098-51.47059 0-4.90196 2.45098-9.80392 4.90196-12.2549 2.45098-4.90196-22.05883 7.35294-22.05883 14.70588 0 12.2549 2.45098 26.96079 2.45098 41.66667 7.35294 12.2549 26.96079 44.11765 39.21569 71.07843zm-1500-360.29412c12.2549 19.60784 36.7647 44.11765 49.0196 51.47059l-4.90195-24.5098c0-4.90197 0-12.2549-4.90197-19.60785-4.90195-9.80392-26.96078-29.41176-31.86274-53.92157-4.90196-4.90196-14.70588 19.60785-14.70588 26.96079 0 4.90196 4.90196 14.70588 7.35294 19.60784zm1455.88235-100.4902c2.45098 9.80393 12.2549 19.60785 12.2549 31.86275-2.45098 12.2549 2.45098 14.70588 9.80393 4.90196 22.05882-31.86274 2.45098-49.0196 19.60784-73.52941 4.90196-9.80392 17.15686-24.5098 22.05882-14.70588 7.35294 19.60784 2.45098 34.31372-2.45098 41.66666-7.35294 9.80393-19.60784 12.2549-19.60784 29.41177 0 7.35294-2.45098 12.2549 2.45098 9.80392 7.35294-7.35294 22.05882-19.60784 29.41176-34.31373 9.80393-14.70588 2.45098-51.47058-9.80392-58.82352-4.90196-2.45099-19.60784-4.90197-31.86274-4.90197-9.80392 2.45098-17.15687 7.35295-22.05883 17.15687-9.80392 9.80392-17.15686 29.41176-9.80392 51.47059z"/>
        <path d="M1921.56863 147.60784c-36.76471 26.96079-78.43138 51.4706-120.09804 68.62745-31.86275 12.2549-63.72549 17.15687-88.2353 36.76471-12.2549 9.80392-36.7647 44.11765-31.86274 41.66667 46.56863-22.05883 98.03921-39.21569 144.60784-58.82353 53.92157-24.5098 100.4902-56.37255 142.15686-93.13726 7.35295-7.35294 24.50981-22.05882 24.50981-31.86274 2.45098-12.2549-7.35294-34.31373-14.70588-41.66667-4.90196 2.45098 0 24.5098-9.80393 34.31373-7.35294 7.35294-39.21568 39.21568-46.56862 44.11764zm-840.68628 31.86275l49.01961-19.60784-49.01961-19.60785-49.0196 19.60784 49.0196 19.60785zm926.47059 107.84314c-4.90196 12.2549-9.80392 22.05882-14.70588 31.86274 0 4.90196 83.33333-51.47059 95.58823-83.33333 2.45098-9.80392 2.45098-26.96079 0-34.31373-9.80392 12.2549-19.60784 26.96079-29.41176 36.7647-22.05882 24.50981-41.66667 29.41177-51.47059 49.01961zm-46.56863-71.07844c-75.98039 46.56863-159.31372 85.78432-250 117.64706-12.2549 4.90196-58.82353 26.96079-61.27451 29.41177-4.90196 9.80392-7.35294 22.05882-7.35294 31.86274 19.60785-9.80392 53.92157-26.96078 80.88236-39.21568 83.33333-34.31373 174.0196-61.27451 242.64705-110.29412 14.70589-9.80392 29.41177-19.60784 39.21569-31.86275 7.35294-9.80392 2.45098-29.41176 0-39.21568-12.2549 14.70588-26.96078 31.86274-44.11765 41.66666z"/>
        <path d="M1946.07843 174.56863c-12.2549 9.80392-71.07843 46.56862-100.49019 63.72549-36.76471 19.60784-78.43138 34.31372-115.19608 46.56862-19.60785 7.35295-61.27451 26.96079-61.27451 34.31373-2.45098 9.80392-7.35294 19.60784-9.80392 29.41177 46.56862-22.05883 58.82352-24.5098 110.29411-44.11765 19.60785-7.35294 56.37255-22.05883 61.27451-26.96079 34.31373-14.70588 66.17647-34.31372 90.68628-46.56862 39.21568-19.60785 73.52941-51.4706 83.33333-71.07843 4.90196-12.2549 0-24.5098-2.45098-34.31373-2.45098 0-29.41176 29.41176-56.37255 49.0196zm-698.52941-39.21569c-19.60784 2.45098-39.21569 4.90196-51.47059 12.2549-7.35294 4.90196-7.35294 14.70588-7.35294 14.70588 0 4.90197 12.2549 12.2549 17.15686 12.2549 29.41177 9.80393 73.52941 7.35295 98.03922-4.90195 7.35294-2.45098 17.15686-9.80393 9.80392-19.60785-7.35294-9.80392-44.11765-14.70588-66.17647-14.70588zm51.47059 26.96079c-4.90196 4.90196-24.50981 9.80392-44.11765 9.80392-24.5098 0-46.56863-2.45098-46.56863-9.80392 0-2.45099 2.45098-4.90196 9.80392-7.35295 9.80393-2.45098 24.50981-4.90196 39.21569-4.90196 17.15686 0 41.66667 0 44.11765 9.80392l-2.45098 2.45099zm480.39215 14.70588c0-4.90196 0-7.35294-2.45098-9.80392-2.45098-4.90196-2.45098-7.35295-2.45098-9.80392 4.90196-2.45099 9.80393-2.45099 7.35295 2.45097-2.45099 24.5098 9.80392 7.35295 7.35294 22.05883 0 12.2549-9.80393 0-14.70589 7.35294-2.45098 7.35294-4.90196 22.05882 0 26.96078 7.35295 0 9.80393-2.45098 9.80393-7.35294 0-4.90196 0-7.35294 2.45098-9.80392 22.05882 0 58.82353-7.35294 51.47058-34.31372-2.45098-9.80393-7.35294-17.15687-9.80392-24.5098v-17.15687c-4.90196 4.90196-9.80392 9.80392-14.70588 12.2549-14.70588 9.80392-73.52941 24.5098-75.98039-2.45098 0-12.2549 4.90196-12.2549 9.80392-19.60784-26.96078-2.45098-7.35294-19.60785 0-24.5098 34.31373-19.60785 61.27451-9.80393 66.17647 9.80392 4.90196-9.80393 19.60784-17.15687 29.41176-22.05883-24.5098 0-63.72549-7.35294-24.5098-24.5098 24.5098-12.2549 61.27451 2.45098 66.17647-7.35294 4.90196-7.35294 4.90196-9.80393-19.60784-9.80393-19.60784 0-51.47059 2.45099-66.17647 14.70589-2.45098 2.45098-4.90196 12.2549-9.80392 14.70588-19.60785 2.45098-61.27451 19.60784-66.17647 34.31373-2.45098 12.2549 4.90196 17.15686 4.90196 24.5098 2.45098 22.05882-2.45098 26.96078 19.60784 34.31373v4.90196c-4.90196 4.90196-17.15686 4.90196-24.5098 2.45098-26.96079-2.45099-31.86275-26.96079-4.90197-31.86275-7.35294-9.80392-14.70588-7.35294-24.5098-7.35294-9.80392 2.45098-17.15686 4.90196-22.05882 12.2549-4.90196 7.35294-4.90196 17.15686-2.45098 24.5098 24.5098 46.56863 75.98039 34.31373 110.29411 14.70589zm19.60785 9.80392c-2.45098 0-4.90196-7.35294-2.45098-7.35294 7.35294 2.45098 4.90196 4.90196 2.45098 7.35294zm22.05882-7.35294c0 2.45098-4.90196 2.45098-9.80392 2.45098s-12.2549-9.80392-4.90196-9.80392h12.2549c7.35294 2.45098 4.90196 4.90196 2.45098 7.35294zm-24.5098-26.96079c4.90196 0 14.70588-4.90196 17.15686-4.90196 7.35294 0 9.80392 7.35294 7.35294 9.80392-4.90196-2.45098-36.7647-2.45098-24.5098-4.90196zm-375 26.96079l49.01961-19.60784-49.01961-19.60785-49.01961 19.60784 49.01961 19.60785z"/>
        <path d="M825.9804 194.17647c-4.90197 9.80392-2.45099 22.05882 0 34.31373-9.80393 4.90196-17.15687 12.2549-22.05883 22.05882 2.45098 2.45098 4.90196 7.35294 7.35294 7.35294 4.90196 0 7.35294-2.45098 7.35294-4.90196 4.90196-4.90196 19.60784-17.15686 22.05883-22.05882 2.45097-2.45098 0-9.80392 0-14.70589-7.35295-17.15686 4.90196-19.60784 9.80392-22.05882 9.80392-2.45098 14.70588 2.45098 19.60784-4.90196 2.45098-2.45098 0-7.35294 0-12.2549 2.45098-17.15686 19.60784-17.15686 31.86274-9.80392 7.35294 4.90196 14.70589 4.90196 22.05883-2.45098s22.05882-4.90196 29.41176 7.35294c-12.2549 2.45098-19.60784 9.80392-19.60784 19.60784-9.80392-4.90196-14.70588-2.45098-19.60784 0-9.80393 4.90196-14.70589 12.2549-19.60785 19.60784-2.45098 0-7.35294-2.45098-12.2549 0-9.80392 2.45098-19.60784 12.2549-19.60784 22.05883 0 9.80392 9.80392 17.15686 14.70588 22.05882 12.2549 12.2549-7.35294 7.35294-9.80392 17.15686-2.45098 9.80392 4.90196 19.60785-7.35294 19.60785-9.80392 0-14.70588-14.70589-19.60784-12.2549 0 2.45098-2.45099 19.60784 0 17.15686 7.35294-2.45098 12.2549 4.90196 17.15686 4.90196 9.80392 0 14.70588-2.45098 19.60784-2.45098 4.90196 0 9.80392 4.90196 17.15686 4.90196 4.90196 2.45098 14.70588 0 17.15687 0 31.86274-14.70588 7.35294-31.86275 7.35294-31.86275s-4.90196-4.90196-9.80393-7.35294c0 0 26.96079 4.90196 12.2549-17.15686h2.45099l7.35294 2.45098h2.45098c2.45098 0 2.45098 2.45098 4.90196 2.45098l4.90196 2.45098c2.45098 0 2.45098 2.45098 4.90196 2.45098 0 0 2.45098 0 2.45098-2.45098L953.43137 253c0-2.45098 0-2.45098 2.45098-4.90196v-22.05882c0-4.90196 0-7.35295-2.45098-12.2549 14.70588 0 14.70588 14.70588 22.05883 12.2549 2.45098-2.45098 4.90196-12.2549 7.35294-19.60785 0-7.35294-2.45098-12.2549-4.90196-19.60784 0 0-9.80393-14.70588-9.80393-17.15686-2.45097-4.90196-2.45097-9.80392-4.90196-14.70589-2.45098-2.45098-12.2549-9.80392-12.2549-14.70588 0-9.80392 0-26.96078 4.90196-26.96078 105.39216 0 477.94118-2.45098 568.62745-2.45098 12.25491 0 22.05883 4.90196 19.60785 4.90196 0 4.90196 2.45098 17.15686 0 24.5098-2.45098 4.90196-9.80392 7.35294-12.2549 12.2549-2.45099 4.90197-4.90197 17.15687-7.35295 24.5098-2.45098 2.45099-4.90196 7.35295-7.35294 9.80393h-36.7647 34.31372c-4.90196 9.80392-7.35294 14.70588-4.90196 19.60784 0 0 0 7.35294 2.45098 14.70589 0 2.45098 2.45098 4.90196 4.90196 4.90196 4.90196 0 14.70589-12.2549 29.41177-12.2549 0 9.80392-2.45098 39.21568 4.90196 36.7647 7.35294-2.45098 14.70588-12.2549 19.60784-9.80392-4.90196 4.90196-2.45098 9.80392 0 12.2549 0 0 2.45098 4.90196 19.60784 4.90196 0 0-39.21568 26.96079-2.45098 39.21569 9.80393-2.45098 19.60785-4.90196 24.50981-7.35294 9.80392-2.45098 14.70588 2.45098 22.05882 0s19.60784-2.45098 19.60784-9.80393c0-4.90196-4.90196-12.2549-4.90196-14.70588-9.80392 4.90196-14.70588 17.15686-24.5098 12.2549 4.90196-9.80392 0-26.96078-12.2549-26.96078 2.45098 9.80392 29.41176-2.45098 29.41176-22.05882 0-9.80393-12.2549-22.05883-29.41176-17.15687-4.90196-7.35294-9.80392-17.15686-17.15686-19.60784-7.35295-2.45098-17.15687-2.45098-22.05883 0-4.90196-9.80392-9.80392-12.2549-19.60784-17.15686-2.45098 2.45098 4.90196-19.60785 24.5098-9.80392 4.90196 2.45098 7.35294 7.35294 12.2549 7.35294 14.70589 2.45098 22.05883-14.70588 39.21569-4.90196 2.45098 2.45098 9.80392 12.2549 4.90196 22.05882 7.35294 12.2549 17.15686 2.45098 24.50981 7.35294 17.15686 12.2549 0 19.60784 4.90196 34.31373 2.45098 7.35294 17.15686 14.70588 22.05882 19.60784 7.35294 9.80392 19.60784 2.45098 12.2549-4.90196-4.90196-4.90196-17.15686-12.2549-19.60784-19.60784-2.45098-4.90196 2.45098-9.80393 4.90196-14.70589 2.45098-22.05882-14.70588-31.86274-36.76471-31.86274-4.90196-14.70588-7.35294-24.5098-22.05882-29.41177-19.60784-7.35294-22.05882 4.90196-31.86275 4.90196 0 0-24.5098-7.35294-24.5098-9.80392-2.45098-2.45098-4.90196-36.7647-4.90196-41.66666 17.15686-7.35295 44.11765-26.96079 49.01961-51.4706 2.45098-12.2549 0-34.31372 0-46.56862-14.70588 2.45098-36.76471-2.45098-51.47059 2.45098-29.41176 7.35294-2.45098 73.52941-44.11765 78.43137-17.15686 2.45098-26.96078-9.80392-31.86274-19.60784-14.70588-29.41176 7.35294-51.47059 9.80392-61.27451C1482.84314 5.45098 1399.5098 3 1367.64706 3c0 2.45098 17.15686 31.86275 4.90196 58.82353-12.2549 14.70588-36.76471 39.21569-63.72549 7.35294-9.80392-9.80392-9.80392-29.41176-7.35294-46.56863 2.45098-7.35294 4.90196-9.80392 7.35294-22.05882h-117.64706c4.90196 12.2549 7.35294 17.15686 9.80392 26.96078 4.90196 26.96079-7.35294 56.37255-31.86274 58.82353-24.50981 2.45098-41.66667-26.96078-39.21569-51.47058 0-9.80393 4.90196-19.60785 7.35294-29.41177-41.66666 2.45098-85.78431 0-125 2.45098 2.45098 19.60784 22.05883 41.66667 2.45098 68.62745-12.2549 19.60784-51.47059 22.05883-53.92157-17.15686-2.45098-17.15686-2.45098-34.31373-17.15686-46.56863h-53.92157c-7.35294 56.37255 17.15687 63.7255 49.01961 90.68628v41.66666c-7.35294 2.45098-22.05882 9.80392-29.41177 9.80392-2.45097 0-12.2549-14.70588-31.86274-2.45098-12.2549 4.90197-19.60784 19.60785-22.05882 29.41177-9.80392 0-24.5098 2.45098-29.41177 12.2549zM875 230.94117c2.45098 0 2.45098-2.45097 4.90196-4.90195 12.2549-2.45099 24.5098 9.80392 26.96078 17.15686v4.90196C894.60784 253 875 243.19608 875 230.94118zm24.5098 63.7255c-7.35294 0-17.15686-2.45098-19.60784-4.90196C875 284.86274 875 275.05882 884.80392 275.05882c7.35294 0 17.15686 7.35294 22.05883 12.2549 4.90196 2.45099 2.45097 4.90197-7.35295 7.35295zm39.21569-56.37255c-9.80392-2.45098-24.5098-7.35294-26.96078-14.70589-2.45099-4.90196 2.45098-12.2549 2.45098-12.2549 14.70588-4.90196 31.86274 22.05883 24.5098 26.96079zm17.15686-46.56863c12.2549-4.90196 17.15687 9.80392 14.70589 17.15686-7.35295-2.45098-22.05883-9.80392-14.70589-17.15686zm644.60785 102.94118c-17.15687 0 4.90196-19.60785 14.70588-19.60785 22.05882-2.45098 9.80392 19.60785-14.70588 19.60785zm17.15686-68.62745c22.05882-2.45099 4.90196 22.05882-9.80392 24.5098-19.60785 0 2.45098-22.05882 9.80392-24.5098zm-36.76471-14.70589h9.80392c4.90197 14.70589-9.80392 22.05883-19.60784 26.96079h-4.90196c0-12.2549 7.35294-24.5098 14.70588-26.96079zm-34.31372-9.80392c-2.45098 2.45098-9.80392 4.90196-12.2549 4.90196l-4.90197-2.45098c2.45099-7.35294 4.90197-14.70588 9.80393-14.70588 12.2549 0 12.2549 9.80392 7.35294 12.2549zm14.70588-161.7647c2.45098-4.90197 9.80392-9.80393 17.15686-9.80393 19.60785 0 9.80392 24.5098 9.80392 22.05883 0 2.45098-2.45098 7.35294-4.90196 9.80392-7.35294 9.80392-19.60784 19.60784-29.41176 24.5098 4.90196-14.70588 2.45098-34.31372 7.35294-46.56862zm-171.56863 12.2549c0-14.70588-2.45098-19.60785 2.45098-29.41177 24.50981 0 71.07843-2.45098 68.62745 4.90196-9.80392 41.66667 4.90196 61.27451 22.05883 73.52942-39.21569 0-44.11765-14.70589-46.56863-36.76471-7.35294-4.90196-14.70588-2.45098-24.5098-2.45098-9.80393 24.5098-4.90196 39.21569-49.01961 36.7647-14.70588 4.90197 24.5098-9.80392 26.96078-46.56862zm-166.66666 4.90196c2.45098-9.80392 0-22.05883-2.45098-29.41177 0-4.90196 63.72549-7.35294 61.27451-2.45098-7.35295 53.92157 22.05882 68.62745 31.86274 75.9804-31.86274 2.45098-46.56863-2.45098-51.47059-34.31373h-22.05882c-2.45098 31.86275-17.15686 36.7647-49.01961 34.31373 14.70588-9.80393 26.96078-22.05883 31.86275-44.11765zm-181.37255-31.86275c4.90196 0 61.27451-2.45098 73.52941-2.45098-2.45098 17.15687-2.45098 61.27451 29.41176 75.9804-41.66666 2.45098-39.21568-7.35295-51.47059-36.76471h-22.05882c-7.35294 29.41176-2.45098 39.21569-49.01961 36.7647 17.15687-17.15686 31.86275-24.5098 19.60785-73.5294zM914.21569 27.5098h22.05882c17.15686 12.2549 4.90196 44.11765 17.15686 61.27451-26.96078-14.70588-53.92157-44.11764-39.21568-61.2745z"/>
        <path d="M2178.92157 956.43137c-9.80392 12.2549-36.76471 22.05883-56.37255 22.05883 2.45098-24.5098-19.60784-34.31373-24.5098-56.37255-4.90197-14.70589 4.90196-29.41177 4.90196-39.21569 2.45098-17.15686-12.25491-17.15686-14.70589-26.96078-2.45098-7.35295 0-17.15687 0-22.05883 0-4.90196-9.80392-9.80392-22.05882-14.70588-19.60784 17.15686-39.21569 19.60784-53.92157 9.80392-4.90196-2.45098-9.80392-7.35294-9.80392-9.80392-2.45098-17.15686 14.70588-39.21569 19.60784-51.47059 4.90196-9.80392 4.90196-22.05882 7.35294-31.86274 39.21569-7.35294 61.27451-34.31373 56.37255-80.88236-2.45098-12.2549-7.35294-24.5098-12.2549-34.31372-7.35294-9.80392-12.2549-22.05883-19.60784-31.86275-14.70588-19.60784-29.41177-41.66666-39.21569-66.17647-19.60784-46.56862-17.15686-115.19608 7.35294-151.96078 0 0 12.25491-14.70588 7.35294-12.2549-4.90196 0-12.2549 7.35294-17.15686 9.80392-12.2549 7.35294-19.60784 29.41176-22.05882 46.56863-2.45098 9.80392-2.45098 17.15686-2.45098 24.5098 0 7.35294 0 19.60784 2.45098 26.96078 4.90196 39.21569 17.15686 61.27451 31.86274 90.68628 17.15687 34.31372 63.72549 71.07843 56.37255 125-4.90196 34.31372-39.21568 39.21569-71.07843 39.21569 2.45098 14.70588 4.90196 34.31372 2.45098 51.47058-2.45098 17.15687-17.15686 31.86275-12.2549 53.92157 0 0 4.90196 41.66667 80.88235 14.70588 2.45098 12.2549 4.90196 22.05883 9.80392 29.41177 9.80393 12.2549 7.35295-2.45098 2.45098 22.05882-2.45098 12.2549 0 26.96079 2.45098 34.31373 4.90197 14.70588 14.70589 24.5098 19.60785 39.21568 0 0 0 12.2549-7.35294 26.96079-17.15687-2.45098-46.56863-2.45098-58.82353 4.90196-14.70588 9.80392-4.90196 22.05883-22.05883 22.05883-4.90196 0-2.45098-7.35294-4.90196-9.80392-7.35294-12.25491-19.60784-14.7059-34.31372-17.15687 2.45098-26.96079 2.45098-29.41177-12.2549-46.56863 9.80392-7.35294 19.60784-4.90196 31.86274 2.45098 7.35294 4.90196 12.2549 7.35294 22.05882 12.2549 4.90197-9.80392 0-26.96078 4.90197-39.21568 7.35294-19.60785 9.80392-26.96079 0-26.96079-19.60785-2.45098-34.31373-4.90196-41.66667-22.05882-17.15686-31.86275-4.90196-22.05882-26.96079-14.70588-49.0196 19.60784-68.62745-2.45098-83.33333-14.70589-7.35294-7.35294-12.2549-17.15686-14.70588-29.41176-7.35294-24.5098-9.80392-56.37255-7.35294-85.78431 2.45098-24.5098 12.2549-58.82353 4.90196-93.13726-2.45098-14.70588-14.70588-34.31372-24.50981-39.21569-12.2549-4.90196-26.96078-4.90196-39.21568-9.80392-31.86275-9.80392-58.82353-49.0196-41.66667-85.78431 12.2549-26.96078 44.11765-41.66667 44.11765-51.47059h-22.05883c-14.70588 22.05882-83.33333 71.07843-102.94117 85.78431 12.2549 19.60785 0 36.76471 2.45098 31.86275-19.60784-22.05882-34.31373 12.2549-41.66667 9.80392-4.90196-26.96078-7.35294-26.96078-29.41176-39.21569 2.45098-17.15686 12.2549-29.41176 0-44.11764v-4.90196c2.45098-7.35294 2.45098-14.70589 2.45098-24.5098 9.80392-2.45099 29.41176 22.05882 34.31372 19.60784 22.05883-7.35294 44.11765-29.41177 90.68628-49.01961 29.41176-12.2549 61.27451-24.5098 90.68627-34.31373 49.01961-17.15686 132.35294-41.66666 156.86275-78.43137 4.90196-7.35294 7.35294-17.15686 9.80392-26.96078-7.35294 2.45098-44.11765 26.96078-78.43137 44.11764-29.41177 12.2549-80.88236 26.96079-110.29412 39.21569-39.21569 14.70588-80.88235 29.41176-117.64706 49.0196-26.96078 14.70589-39.21569 24.50981-46.56863 26.9608-9.80392 4.90195 2.45098 9.80391-4.90196 14.70587-9.80392-9.80392-24.5098-17.15686-36.7647-19.60784-9.80393 0-17.15687 2.45098-17.15687 2.45098v-2.45098 2.45098s-2.45098 0-4.90196 2.45098c-4.90196 4.90196-17.15686 9.80392-19.60784 14.70588-4.90196 7.35295-4.90196 19.60785-2.45098 24.5098 2.45098 2.45099 9.80392 4.90197 12.2549 4.90197-9.80392 7.35294-19.60784 19.60784-19.60784 34.31372-4.90196 34.31373 29.41176 12.2549 31.86274 22.05883 4.90196 14.70588-7.35294 26.96078-4.90196 44.11764 0 2.45099 2.45098 7.35295 4.90196 9.80393l2.45098 2.45098c14.70589 2.45098 19.60785-2.45098 19.60785-2.45098 19.60784-12.2549 14.70588-7.35294 17.15686-9.80393 17.15686 0 7.35294 14.70589 2.45098 17.15687-2.45098 2.45098-14.70588 7.35294-4.90196 9.80392 17.15686 2.45098 24.5098 7.35294 44.11765-7.35294 14.70588-9.80392 26.96078-34.31373 29.41176-56.37255 0 0-2.45098-14.70588 0-17.15686 0-2.45098 44.11765-34.31373 44.11765-34.31373 4.90196 4.90196-12.2549 56.37255 22.05882 85.78431 22.05882 19.60785-26.96078-7.35294-83.33333 17.15687-26.96079 12.2549-41.66667 29.41176-56.37255 53.92157-26.96079 49.0196 7.35294 88.23529 44.11765 107.84313 0 19.60785 2.45098 19.60785-2.45098 22.05883-4.90197 2.45098-9.80393 0-14.70589 2.45098-26.96078 9.80392-22.05882 31.86274-36.7647 29.41176-19.60785-4.90196-31.86275-34.31372-58.82353-31.86274-12.2549 2.45098-14.70588 12.2549-24.50981 17.15686-7.35294 2.45098-7.35294 2.45098-7.35294 0-9.80392 7.35294-36.7647 24.5098-80.88235 41.66667 7.35294-2.45098 17.15686-4.90196 24.5098-4.90196 4.90196 0 22.05883-2.45099 26.96079 2.45098 2.45098 2.45098 4.90196 14.70588 9.80392 14.70588 0 0 29.41176-19.60785 22.05882 0-4.90196 4.90196-31.86274 12.2549-14.70588 46.56863 22.05882 12.2549 41.66667 26.96078 58.82353 49.0196 22.05882 34.31373 12.2549 73.52942-17.15686 90.68628 14.70588-44.11764-2.45098-85.78432-46.56863-93.13726-22.05882-4.90196-41.66667-2.45098-61.27451-9.80392-24.5098-9.80392-41.66667-26.96078-61.27451-39.21569-17.15686-9.80392-39.21569-12.2549-56.37255-22.05882 0 0-73.52941 9.80392-134.80392 0 2.45098 0 4.90196 0 7.35294 2.45098-24.5098 9.80392-49.01961 17.15687-71.07843 29.41177-17.15686 9.80392-31.86275 24.5098-51.47059 31.86274-17.15686 7.35294-36.7647 4.90196-58.82353 9.80392-41.66666 9.80392-61.2745 46.56864-46.56863 93.13726-26.96078-17.15686-39.21568-53.92157-19.60784-88.2353 14.70588-24.5098 41.66667-39.21568 66.17647-53.92156v-7.35295c2.45098-17.15686 0-17.15686-2.45098-22.05882-2.45098-4.90196-7.35294-12.2549-19.60784-14.70588 0-2.45098-2.45098-4.90196 0-7.35294 4.90196-2.45098 9.80392 4.90196 14.70588 4.90196 14.70588 4.90196 9.80392-17.15686 24.5098-17.15686 17.15687 0 31.86275 2.45098 44.11765 7.35294-26.96078-12.2549-53.92157-24.5098-78.43137-41.66667-4.90196 0-12.2549-2.45098-17.15686-2.45098 0-7.35294-12.2549-17.15686-31.86275-17.15686-19.60784 2.45098-29.41176 29.41176-58.82353 31.86274-12.2549-19.60784-19.60784-29.41176-41.66666-31.86274-2.45098-2.45098-4.90197-17.15687-2.45098-22.05883-2.45099 2.45098 26.96078-14.70588 36.7647-26.96078 46.56863-51.47059-9.80392-120.09804-51.47059-137.2549-24.5098-9.80392-53.92157-4.90196-80.88235-7.35294 17.15686-29.41177 31.86274-49.01961 24.5098-95.58824 7.35294 2.45098 44.11765 26.96079 46.56863 34.31373 2.45098 7.35294 0 17.15686 0 24.5098 2.45098 19.60784 17.15686 41.66667 31.86275 51.47059 12.2549 7.35294 34.31372 9.80392 46.56862 0-12.2549-4.90196-22.05882-17.15686-9.80392-24.5098 2.45098 2.45097 4.90196 4.90195 9.80392 7.35294 2.45098 2.45098 9.80392 4.90196 17.15687 7.35294 0 0 14.70588 0 19.60784-4.90196 2.45098-4.90197 2.45098-12.2549 2.45098-12.2549V578.98038c0-4.90196-2.45098-9.80392-2.45098-14.70588v-12.2549h2.45098c7.35294 2.45098 12.2549 2.45098 12.2549 2.45098 2.45098 0 4.90196 0 7.35294-2.45098 2.45098 0 2.45098-2.45098 2.45098-2.45098 0-2.45098 2.45098-2.45098 2.45098-4.90196V525.05882c0-2.45098 0-2.45098-2.45098-4.90196 0-2.45098-2.45098-2.45098-2.45098-4.90196s-7.35294-7.35294-7.35294-9.80392L943.62745 503v-2.45098h9.80392l2.45098-2.45098V483.39216s0-2.45098-2.45098-2.45098c-2.45098-2.45098-2.45098-4.90196-4.90196-4.90196l-2.45098-2.45099c-2.45098-2.45098-7.35294-4.90196-12.2549-7.35294-4.90196-2.45098-12.2549-2.45098-17.15686-2.45098-7.35294 0-14.70589 0-19.60785 2.45098-9.80392 2.45098-14.70588 9.80393-19.60784 14.70589-2.45098 2.45098-4.90196 0-2.45098-9.80392 0-4.90197-29.41176-19.60785-36.7647-24.5098-26.96079-14.7059-46.56863-24.50981-73.52942-34.31374-22.05882-9.80392-44.11764-17.15686-63.72549-24.5098-29.41176-9.80392-61.2745-17.15686-90.68627-31.86274-17.15687-7.35294-34.31373-17.15687-51.4706-26.96079-19.60783-12.2549-34.31372-22.05882-31.86274-17.15686 2.45098 7.35294 4.90197 17.15686 12.2549 26.96078 7.35295 9.80392 29.41177 24.5098 39.2157 31.86275 26.96078 14.70588 66.17646 26.96078 105.39215 41.66666 36.7647 12.2549 73.52941 26.96079 110.29412 44.11765 19.60784 9.80392 39.21568 19.60785 56.37255 29.41177 7.35294 2.45098 19.60784 14.70588 29.41176 12.2549 2.45098 0 9.80392-9.80392 14.70588-12.2549 4.90196-2.45098 9.80392-7.35294 12.2549-7.35294 9.80393-4.90197-2.45098 7.35294 7.35295 29.41176-2.45098 2.45098-2.45098 4.90196-4.90197 7.35294-7.35294 9.80392 0 26.96079 4.90197 39.21569-12.2549 4.90196-19.60785 9.80392-24.5098 19.60784-7.35295 17.15686 0 24.5098-14.70589 14.70588-7.35294-4.90196-7.35294-14.70588-24.5098-9.80392-7.35294 2.45098-9.80392 9.80392-12.2549-7.35294 0-4.90196 2.45097-14.70588 4.90195-19.60784-29.41176-22.05883-63.72549-41.66667-88.23529-68.62745-9.80392-12.2549-9.80392-19.60785-36.7647-14.70589C762.2549 503 772.05881 522.60784 769.60784 552.01961c-2.45098 12.2549-9.80392 24.5098-19.60784 31.86274-4.90196 4.90196-12.2549 14.70588-19.60784 17.15687-22.05883 9.80392-49.01961 4.90196-61.27451 24.5098-22.05883 34.31372-7.35294 90.68627-4.90196 132.35294 2.45098 24.5098 0 49.0196-7.35294 71.07843-2.45099 9.80392-4.90197 17.15686-9.80393 24.5098C632.35294 878 600.4902 895.15687 561.27451 880.45099c-7.35294-2.45098-9.80392-7.35294-19.60784-9.80392-9.80392 22.05882-14.70589 29.41176-29.41177 39.21569-9.80392 7.35294-29.41176 4.90196-29.41176 9.80392-2.45098 9.80392 4.90196 17.15686 4.90196 22.05882 2.45098 9.80392 4.90196 31.86274 2.45098 39.21569 2.45098 2.45098 4.90196 4.90196 7.35294 2.45098 9.80392-7.35294 24.5098-22.05883 41.66667-17.15687 2.45098 0 7.35294 2.45098 4.90196 4.90197-17.15687 17.15686-17.15687 22.05882-12.2549 44.11765-7.35295 7.35294-12.2549 0-22.05883 7.35294-7.35294 4.90196-12.2549 12.2549-14.70588 19.60784 0 4.90196-7.35294 2.45098-7.35294 2.45098l-7.35294-14.70588c-2.45098-4.90196-7.35294-9.80392-12.2549-9.80392-14.70589-4.90196-41.66667-7.35294-53.92157-2.45098-2.45098 0-7.35294-17.15687-7.35294-29.41177 0-7.35294 4.90196-12.2549 7.35294-17.15687 2.45098-2.45098 12.2549-19.60784 14.70588-36.7647v-22.05883c0-2.45097-7.35294-14.70588-4.90196-17.15686 12.2549-9.80392 14.70588-19.60784 19.60784-34.31372 7.35294 2.45098 14.70588 4.90196 19.60784 4.90196 24.5098 7.35294 56.37255 4.90196 58.82353-19.60784 2.45098-17.15687-2.45098-29.41177-7.35294-39.2157-7.35294-19.60784-9.80392-46.56862-2.45098-68.62744-34.31372 7.35294-71.07843-7.35294-71.07843-51.4706 0-34.31372 26.96078-58.82352 39.21569-80.88234 14.70588-24.5098 34.31372-58.82353 44.11764-90.68628 7.35294-29.41176 9.80392-83.33333-9.80392-117.64706-4.90196-9.80392-14.70588-12.2549-26.96078-17.15686 4.90196 12.2549 14.70588 22.05882 19.60784 34.31373 12.2549 34.31372 12.2549 73.5294 2.45098 107.84313-12.2549 39.21569-36.7647 68.62745-56.37255 100.4902-9.80392 17.15686-26.96078 39.21569-24.5098 71.07843 4.90196 39.21569 24.5098 53.92157 58.82353 63.7255 0 12.2549 4.90196 22.05881 7.35294 31.86274 4.90196 12.2549 17.15686 39.21568 14.70588 53.92156 0 0-4.90196 12.2549-26.96078 12.2549-24.5098 0-34.31373-14.70588-36.7647-14.70588-2.45099 0-12.25491 7.35294-14.7059 7.35294-9.80391 4.90197-2.45097 9.80393-4.90195 19.60785 0 2.45098-2.45098 12.2549-7.35294 14.70588-7.35294 4.90196-14.70589 12.2549-9.80393 22.05882 4.90197 7.35294 7.35295 19.60785 4.90197 31.86275-2.45098 14.70588-14.70589 24.5098-19.60785 34.31372-12.2549 17.15687-2.45098 24.5098-7.35294 26.96079-12.2549 0-31.86274-7.35294-44.11765-14.70588-4.90196-4.90196-14.70588-12.2549-12.2549 0 4.90196 14.70588 9.80393 29.41177 14.70589 41.66667 17.15686 34.31372 68.62745 88.23529 171.56862 83.33333 22.05883 0 61.27451-9.80392 80.88236-19.60784 4.90196-2.45098 12.2549 26.96078 19.60784 24.5098 9.80392-49.01961 58.82353-56.37255 107.84314-61.27451 4.90196 0 9.80392-2.45098 14.70588-2.45098 17.15686-2.45098 17.15686-7.35294 34.31372-9.80392 12.2549 24.5098 24.5098 41.66667 44.11765 46.56863 31.86275 9.80392 19.60784-2.45098 17.15686-9.80392-4.90196-17.15687-4.90196-36.76471 12.2549-49.01961 12.2549-9.80392 58.82353-22.05883 80.88236-17.15686-4.90196 34.31372 9.80392 53.92156 29.41176 71.07843 4.90196 2.45098 9.80392 9.80392 17.15687 9.80392h4.90196c0-9.80392-4.90196-17.15686-7.35294-29.41177-4.90197-36.7647 22.05882-46.56862 46.56862-53.92157 12.25491-2.45098 36.76471-4.90196 51.47059-2.45098-2.45098 26.96079 4.90196 51.47059 17.15686 68.62746 2.45098-9.80393 2.45098-19.60785 7.35295-26.9608 12.2549-19.60783 41.66666-41.66666 68.62745-44.11764 26.96078-2.45098 51.47058 4.90196 73.52941 9.80393h14.70588c19.60784 0 39.21569-4.90197 58.82353-9.80393 46.56863-7.35294 90.68627 12.2549 107.84314 44.11765 2.45098 4.90196 2.45098 7.35294 4.90196 14.70588l2.45098 9.80392c12.2549-19.60784 14.70588-39.21568 14.70588-68.62745 14.70588-4.90196 41.66667 0 56.37255 2.45098 34.31373 9.80393 53.92157 36.7647 34.31373 75.9804 0 0-4.90197 9.80392 7.35294 7.35294 29.41176-4.90196 51.47058-46.56863 46.56862-80.88236 4.90196 0 12.25491-2.45098 17.15687-2.45098 36.7647 4.90197 88.23529 17.15687 75.98039 63.72549l-4.90196 19.60785c39.21568 2.45098 58.82353-34.31373 63.72549-49.01961 2.45098-7.35294 4.90196 0 22.05882 7.35294h7.35294c2.45098 0 7.35294 2.45098 12.2549 2.45098 53.92157 7.35294 107.84314 9.80392 117.64706 63.72549 9.80393-4.90196 12.25491-14.70588 19.60785-24.5098 46.56862 22.05882 129.90196 24.5098 178.92157 2.45098 26.96078-9.80392 51.47058-34.31373 68.62745-53.92157 7.35294-7.35294 12.2549-22.05882 17.15686-31.86275-7.35294-22.05882 2.45098-44.11765-2.45098-49.0196zm-612.7451-482.84314c2.45098-2.45098 4.90196-4.90196 9.80392-4.90196 14.70588-2.45098 12.2549 7.35295 12.2549 14.70589-9.80392-2.45098-34.31372 0-22.05882-9.80392zm-4.90196 66.17648c-7.35294-12.2549 4.90196-29.41177 17.15686-31.86275h9.80392v7.35294c-4.90196 12.2549-19.60784 22.05882-26.96078 24.5098zm29.41176 53.92156c-14.70588 2.45098 0-29.41176 4.90197-29.41176 24.5098-4.90196 12.2549 29.41176-4.90197 29.41176zm49.01961 17.15687c0-7.35294 4.90196-29.41177 14.70588-29.41177 2.45099 0 4.90197 2.45098 4.90197 2.45098 9.80392 12.2549-9.80393 22.05883-19.60785 26.96079zm-698.5294-88.2353c4.90195 4.90196 7.35293 14.70588 2.45097 17.15687-2.45098 2.45098-24.5098-12.2549-29.41176-24.5098-2.45098-4.90197 2.45098-7.35295 4.90196-7.35295 12.2549 2.45098 17.15686 7.35294 22.05882 14.70588zm-22.05883-53.92157c17.15686-2.45098 22.05882 9.80393 22.05882 9.80393 0 7.35294-9.80392-2.45098-17.15686 2.45098-12.2549 7.35294-12.2549-7.35294-4.90196-12.2549zm-19.60785 95.58824c12.2549-2.45098 22.05883 26.96078 17.15687 29.41176-12.2549 7.35295-34.31373-24.5098-17.15687-29.41176zm-51.47058 14.70588c7.35294 0 9.80392 4.90196 12.2549 9.80392 4.90196 14.70589 7.35294 22.05883 0 19.60785-4.90196-2.45098-14.70588-9.80393-14.70588-17.15687-4.90197-4.90196-2.45099-9.80392 2.45098-12.2549zm149.5098 323.52941c-9.80392-4.90196-17.15686-7.35294-26.96078-9.80392 0-4.90196 0-4.90196 2.45098-7.35294 0-2.45098 2.45098-4.90196 4.90196-4.90196 14.70588-4.90196 17.15686 12.2549 19.60784 22.05882zm-29.41177-68.62745c0-2.45098 7.35295-7.35294 9.80393-7.35294 17.15686-2.45098 26.96078 12.2549 24.5098 24.5098-9.80392-4.90196-19.60784-7.35294-29.41176-4.90196 0-2.45098-4.90197-7.35294-4.90197-12.2549zM678.92157 610.84314c9.80392-9.80392 17.15686 0 61.2745-19.60785-14.70587 12.2549-44.11764 26.96079-44.11764 29.41177 9.80392 51.47059-61.2745 31.86274-17.15686-9.80392zm7.35294 53.92157c17.15686-4.90197 22.05882-17.15687 31.86275-26.96079C730.39216 628 750 620.64706 772.05881 618.19608c34.31373-2.45098 58.82353 12.2549 78.43138 24.5098 44.11764 31.86275 31.86274 112.7451-26.96079 122.54902 0 4.90196 0 36.7647 9.80392 44.11765 4.90196 0 14.70589-2.45098 29.41177 9.80392 17.15686 14.70588 9.80392 19.60784 17.15686 24.5098 17.15686 14.70589 46.56863-17.15686 53.92157-22.05882 4.90196-2.45098 14.70588-7.35294 22.05882-4.90196l2.45098 4.90196c-2.45098 2.45098-2.45098 2.45098-4.90196 7.35294-4.90196 9.80392-4.90196 19.60784 2.45098 24.5098 7.35294 7.35295 14.70589 9.80393 12.2549 14.70589 0 2.45098-4.90196 4.90196-9.80392 9.80392-7.35294 4.90196-2.45098 19.60784-7.35294 19.60784-53.92157 4.90196-68.62745-36.7647-110.29412-36.7647 7.35295 12.2549 4.90197 14.70588 2.45098 24.5098-12.2549-2.45098-22.05882-2.45098-31.86274 4.90196-7.35294 4.90196-7.35294 12.2549-9.80392 19.60784-19.60784-4.90196-29.41177-12.2549-36.7647-26.96078-31.86275-51.47059 14.70587-78.43137 12.2549-132.35294 0 0 2.45097-24.5098-9.80393-24.5098s-34.31372 4.90196-53.92157 0c-12.2549-4.90197-44.11764-14.70589-49.0196-36.76471-12.2549-44.11765 2.45098-19.60784 22.05882-24.5098zm147.05882 257.35294c-9.80392 0-17.15686-7.35294-17.15686-14.70589-2.45098-14.70588 19.60784-17.15686 19.60784-7.35294 0 4.90196 2.45098 7.35294 7.35294 12.2549 4.90197 7.35295-2.45097 9.80393-9.80392 9.80393zm-338.2353 22.05882c-2.45097-9.80392-7.35293-26.96078-2.45097-31.86275 7.35294-2.45097 19.60784-7.35294 26.96078-12.2549 9.80392-7.35294 12.2549-9.80392 17.15687-22.05882 0-2.45098 2.45098-4.90196 2.45098-7.35294 56.37255 31.86274 107.84313 4.90196 127.45098-46.56863v-2.45098c0-2.45098 2.45098-4.90196 2.45098-7.35294 7.35294-29.41176 0-68.62745-2.45098-95.58824 12.2549 2.45098 14.70588 9.80393 24.5098 14.70589 19.60784 9.80392 46.56863 9.80392 71.07843 9.80392 2.45098 4.90196 2.45098 9.80392 0 14.70588v9.80392c0 4.90196-4.90196 17.15687-4.90196 17.15687-12.2549 34.31372-34.31372 68.62745-7.35294 102.94117 2.45098 2.45098 4.90196 7.35294 0 9.80392-2.45098 2.45098-7.35294 2.45098-9.80392 4.90196-9.80392 2.45098-22.05883 7.35294-31.86275 9.80392-22.05882 4.90197-44.11764 7.35295-71.07843-2.45097-9.80392-2.45099-12.2549-9.80393-24.5098-14.70589-2.45098 12.2549 4.90196 36.7647 0 39.21569-12.2549 7.35294-24.5098 7.35294-36.7647 9.80392-4.90197 0-9.80393 2.45098-17.15687 2.45098-4.90196-7.35294-9.80392-12.2549-19.60784-17.15686-12.2549-7.35294-29.41177 4.90196-44.11765 14.70588zm80.88236 53.92157l-2.45098 2.45098c-2.45098 0-9.80392-12.2549-14.70588-12.2549-9.80392 0-19.60784 0-17.15686-12.2549 2.45098-2.45099 2.45098-4.90197 4.90196-4.90197 14.70588-7.35294 26.96078 19.60785 29.41176 26.96079zm-68.62745 19.60785c12.2549-7.35294 34.31373 24.5098 17.15686 36.7647-4.90196 2.45098-4.90196-7.35294-9.80392-14.70588-7.35294-7.35294-14.70588-14.70588-7.35294-22.05882zm-88.2353-9.80393c7.35295-2.45098 19.60785 0 19.60785 4.90197-9.80392 9.80392-12.2549 14.70588-14.70588 29.41176-4.90196 0-19.60784-26.96078-4.90196-34.31373zm129.90197 58.82353c-29.41177 17.15687-88.2353 9.80393-110.29412 2.45098-58.82353-22.05882-90.68627-66.17647-93.13725-80.88235 0-2.45098 19.60784 7.35294 29.41176 7.35294 19.60784 0 22.05882 12.2549 24.5098 14.70589 2.45098 4.90196 0 17.15686 4.90197 24.5098 7.35294 12.2549 14.70588 22.05882 31.86274 22.05882 2.45098-7.35294-2.45098-9.80392 7.35294-24.5098 12.2549-17.15686 19.60784 0 22.05883 4.90196 4.90195 2.45098 7.35294 7.35294 24.5098 9.80392 12.2549 0 22.05882 4.90196 26.96078 26.96079 4.90196 2.45098 29.41177-22.05883 19.60785-41.66667-4.90197-7.35294-4.90197-14.70588 0-22.05882 2.45098-4.90197 17.15686-7.35295 24.5098 4.90196 4.90196 9.80392 4.90196 12.2549 12.2549 4.90196 14.70588-22.05883 12.2549-44.11765-2.45098-56.37256-9.80392-4.90196 9.80392-9.80392 24.5098-12.2549 7.35295 0 31.86275 2.45098 46.56863 12.2549 7.35294 4.90196 26.96079 7.35294 17.15686 12.2549-12.2549 4.90197-39.21568 24.5098-46.56862 34.31374-24.5098 31.86274-49.01961 46.56862-63.7255 56.37254zM750 998.09804c-9.80392 4.90196-19.60784 7.35294-31.86275 9.80392-7.35294 0-12.2549 2.45099-19.60784 2.45099-41.66666 4.90196-66.17647 19.60784-88.2353 66.17647-2.45097 4.90196-19.60784-29.41177 14.70589-66.17647 19.60784-22.05883 66.17647-34.31373 88.2353-46.56864h2.45097-4.90196c-44.11764 2.45098-80.88235-14.70588-90.68627-51.47059 17.15686 12.2549 36.7647 17.15687 66.17647 19.60785 7.35294 0 14.70588 0 22.05882-2.45098 12.2549-2.45098 24.5098-7.35294 36.7647-9.80392 26.9608-4.90196 53.92158-2.45098 66.17648 9.80392 7.35294 9.80392-4.90196 12.2549-12.2549 17.15686-17.15686 12.2549-26.96079 39.21569-49.01961 51.47059zm66.17647 9.80392c-7.35294 22.05883-4.90196 29.41177 0 39.21569 4.90196 9.80392 7.35294 17.15686-7.35294 7.35294-41.66667-24.5098-36.7647-75.9804 2.45098-105.39216 22.05882-17.15686 49.0196-19.60784 56.37255-24.5098 0-2.45098-12.2549-9.80392-17.15686-17.15687-4.90196-9.80392-2.45098-22.05882 9.80392-22.05882 14.70588-2.45098 24.5098 9.80392 31.86274 12.2549 12.2549 7.35294 56.37255 31.86275 73.52941 14.70588 9.80393-9.80392 24.5098-2.45097 19.60785 2.45099-29.41177 9.80392-36.7647 29.41176-61.27451 39.21568-34.31373 14.70588-98.03922 17.15686-107.84314 53.92157zm605.39216 9.80393c-31.86275-29.41177-53.92157-56.37256-122.54902-51.4706-12.2549 0-19.60785 2.45098-31.86275 7.35294-7.35294 4.90197-14.70588 4.90197-22.05882 2.45099-4.90196 0-12.2549-2.45099-19.60784-4.90197-44.11765-12.2549-90.68628 2.45098-105.39216 12.2549-9.80392 4.90197-29.41177 19.60785-31.86275 26.9608l-7.35294 7.35294c-2.45098-2.45098-2.45098-7.35294 0-24.50981 2.45098-24.5098 26.96079-46.56863 41.66667-58.82353 29.41176-22.05883 66.17647-29.41177 115.19608-34.31373h14.70588c12.2549 0 24.5098-2.45098 34.31373 0 56.37254 7.35294 112.74509 31.86275 134.80392 78.43138 2.45098 9.80392 4.90196 24.5098 0 39.21569zm651.96078-7.35294c24.50981-2.451 14.70588 22.05882 9.80392 31.86274l-2.45098 2.45098v-2.45098c0-7.35294 0-12.2549-2.45098-17.15686-2.45098-4.90196-7.35294-7.35294-9.80392-12.2549-2.45098-2.45098 2.45098-2.45098 4.90196-2.45098zm-83.33333 7.35294c22.05882-2.45098-9.80392 34.31372-9.80392 36.7647-9.80392-12.2549-9.80392-34.31372 9.80392-36.7647zm-26.96079-147.05883c7.35295 17.15686 17.15687 29.41176 34.31373 36.7647 4.90196 2.45099 9.80392 2.45099 14.70588 4.90197-2.45098 9.80392-2.45098 22.05882-4.90196 29.41176-17.15686-7.35294-39.21569-22.05882-56.37255-4.90196l-9.80392 9.80392c-7.35294-2.45098-51.47059-12.2549-51.47059-14.70588-2.45098-7.35294 4.90196-26.96079 0-36.7647-9.80392 4.90195-14.70588 9.80391-24.5098 14.70587-24.50981 9.80393-58.82353 7.35295-85.78432 0-12.2549-2.45098-22.05882-7.35294-29.41176-14.70588 9.80392-19.60784 24.5098-31.86274 17.15686-61.2745-7.35294-29.41177-34.31372-58.82354-24.5098-90.68628 17.15686-4.90196 36.7647 0 56.37255-4.90196 14.70588-4.90196 22.05882-14.70589 34.31372-19.60785h2.45098c2.45098 0-2.45098 0 0 0 0 0 2.45098 2.45098 0 2.45098-2.45098 9.80393-2.45098 19.60785-4.90196 29.41177-2.45098 29.41176 0 53.92157 9.80392 75.9804v4.90195c19.60785 46.56863 61.27451 68.62745 122.54902 39.21569zm-22.05882 122.54902c-9.80392 12.2549-9.80392 0-9.80392 2.45098 0-12.2549 7.35294-22.05883 19.60784-24.5098 4.90196 0 9.80392 0 9.80392 2.45097 7.35294 22.05883-17.15686 14.70589-19.60784 19.60785zM1789.21569 603.4902c24.5098 7.35294 41.66666 4.90196 49.0196 29.41176 2.45098 0 0 4.90196 0 4.90196 0 7.35294-7.35294 14.70588-17.15686 12.2549h-2.45098c-9.80392-2.45098-14.70588-17.15686-12.2549-29.41176-12.2549-9.80392-26.96079-17.15686-39.21569-26.96079 9.80392 4.90196 14.70589 7.35295 22.05883 9.80393zm-252.45098 259.80392c0-9.80392 24.5098-9.80392 14.70588-34.31373l-4.90196-9.80392c9.80392-2.45098 14.70588-2.45098 22.05882 2.45098s49.01961 44.11765 58.82353 17.15686c4.90196-14.70588 17.15686-29.41176 46.56863-31.86274 2.45098-7.35294 7.35294-31.86275 7.35294-36.7647-31.86275-7.35295-53.92157-36.76471-53.92157-71.07844-2.45098-44.11765 44.11765-78.43137 93.13726-80.88235 22.05882 0 41.66666 7.35294 56.37254 14.70588 24.50981 12.2549 19.60785 34.31373 58.82353 29.41176 17.15687-2.45097 4.90196 29.41177 0 34.31373-9.80392 14.70588-31.86274 22.05882-53.92156 26.96078-19.60785 4.90197-44.11765-7.35294-49.01961 0-19.60785 31.86275 14.70588 88.2353 17.15686 117.64706 2.45098 26.96079-14.70588 51.4706-31.86275 58.82353-7.35294 4.90196-14.70588 2.45098-14.70588 2.45098-4.90196-22.05882-19.60784-24.5098-41.66666-22.05882 0-2.45098-2.45098-4.90196-2.45098-9.80392s4.90196-12.2549 4.90196-17.15686c-34.31373 2.45098-73.52942 49.0196-110.29412 39.21568-4.90196-2.45098-2.45098-4.90196-4.90196-12.2549 0-7.35294-12.2549-9.80392-12.2549-17.15686zm134.80392 58.82353c-26.96079 2.45098 0-26.96079 0-26.96079 19.60784-2.45098 19.60784 24.5098 0 26.96079zM1500 851.03922c0-7.35295 0-14.70589 4.90196-19.60785 2.45098-2.45098 9.80392-4.90196 14.70588-4.90196 4.90196 0 12.25491 2.45098 14.70589 7.35294 0 2.45098-2.45098 7.35294-2.45098 9.80392-12.25491 2.45098-22.05883 2.45098-31.86275 7.35295zm17.15686 29.41176c7.35294 0 12.2549 0 14.70589 4.90196 0 2.45098 0 2.45098 2.45098 4.90196-9.80393 2.45098-17.15687 7.35294-24.50981 12.2549-4.90196-7.35294-2.45098-19.60784 7.35294-22.05882zm193.62745 156.86275c-4.90196 7.35294-14.70588 19.60784-24.5098 19.60784-2.45098 0 0-4.90196 0-9.80392 4.90196-12.2549 4.90196-26.96078 0-39.2157-14.70588-36.7647-56.37255-39.21568-95.58824-49.0196-14.70588-2.45098-29.41176-9.80392-39.21568-17.15686-12.2549-9.80392-22.05883-22.05882-39.21569-29.41177 2.45098-2.45097 7.35294-4.90196 9.80392-2.45097 7.35294 0 9.80393 4.90196 14.70589 7.35294 22.05882 7.35294 58.82353-12.2549 71.07843-19.60785 7.35294-4.90196 12.2549-12.2549 22.05882-12.2549 12.2549 0 22.05882 7.35294 17.15686 19.60784-2.45098 9.80393-12.2549 12.2549-17.15686 22.05883 9.80392 4.90196 24.5098 7.35294 34.31373 9.80392 39.21568 12.2549 73.52941 56.37255 46.56862 100.4902zm183.82353 36.7647c-9.80392-19.60784-24.5098-39.21568-44.11764-51.47058-24.50981-14.7059-61.27451-9.80392-90.68628-19.60785h-2.45098c-29.41176-12.2549-36.7647-46.56863-63.72549-58.82353-19.60784-9.80392-9.80392-14.70588 4.90196-19.60784 29.41177-12.2549 49.01961-4.90196 68.62745 2.45098h2.45098c7.35294 2.45098 17.15687 4.90196 26.96079 4.90196 19.60784 2.45098 44.11764 0 58.82353-4.90196 4.90196-2.45098 14.70588-9.80392 19.60784-9.80392 4.90196 0 0 7.35294 0 7.35294-14.70588 29.41176-49.01961 44.11764-93.13725 39.21568v2.45098c49.0196 12.2549 134.80392 44.11766 112.74509 107.84315zm83.33334 2.45099c-41.66667-7.35295-78.43138-56.37255-98.03922-75.9804-14.70588-14.70588-41.66667-24.5098-36.76471-29.41177 17.15687-7.35294 34.31373-17.15686 53.92157-19.60784 14.70589-2.45098 26.96079 4.90196 34.31373 9.80392-2.45098 2.45098-4.90196 4.90196-7.35294 9.80392-2.45098 7.35295-4.90196 19.60785-4.90196 29.41177 2.45098 7.35294 4.90196 12.2549 7.35294 17.15687 14.70588 19.60784 7.35294-12.25491 24.5098-12.25491 2.45098 0 9.80392 0 9.80392 2.45098 12.25491 14.70589-22.05882 41.66667 17.15687 66.17648 4.90196-7.35295 7.35294-17.15687 14.70588-22.05883 7.35294-4.90196 14.70588-2.45098 24.5098-4.90196 9.80392-2.45098 17.15687-9.80392 24.50981-17.15686 2.45098-2.45098 7.35294-4.90196 12.2549 0 7.35294 4.90196 7.35294 22.05882 12.2549 29.41176 14.70588-4.90196 29.41177-9.80392 31.86275-24.5098 2.45098-14.70588 0-17.15686 7.35294-26.9608 9.80392-9.80391 34.31372-14.70587 49.0196-17.15685-22.05882 51.47059-93.13725 98.03922-176.47058 85.78432zM181.37255 1382.90196c-19.60784 4.90197-31.86275 7.35295-41.66667 9.80393-9.80392 0-17.15686 2.45098-26.96078 2.45098-39.21569 0-68.62745-9.80392-85.78432-31.86275C9.80392 1341.2353 0 1314.2745 0 1282.41177c0-22.05882 4.90196-39.2157 12.2549-56.37255 7.35294-17.15686 19.60785-29.41177 36.7647-39.2157 17.15687-9.80391 36.76471-14.70587 63.7255-14.70587 22.05882 0 46.56863 2.45098 68.62745 7.35294v34.31373c-19.60784-4.90196-34.31373-9.80392-41.66667-9.80392-7.35294 0-14.70588-2.45098-24.5098-2.45098-24.5098 0-41.66667 7.35294-53.92157 24.5098-9.80392 14.70588-17.15686 34.31373-17.15686 58.82353s7.35294 44.11765 19.60784 58.82353 31.86275 22.05882 53.92157 22.05882c4.90196 0 12.2549 0 17.15686-2.45098v-68.62745h44.11765c2.45098-2.45098 2.45098 88.23529 2.45098 88.23529zm166.66667 0c-19.60785 4.90197-39.2157 9.80393-56.37255 9.80393-17.15687 0-31.86275-2.45098-44.11765-9.80393-14.70588-7.35294-24.5098-17.15686-29.41177-31.86274-7.35294-14.70588-9.80392-29.41177-9.80392-44.11765 0-14.70588 2.45098-26.96078 9.80393-39.21568 4.90196-12.25491 14.70588-22.05883 24.5098-29.41177 9.80392-7.35294 24.5098-9.80392 41.66666-9.80392 19.60785 0 36.76471 7.35294 46.56863 19.60784 12.2549 12.2549 17.15687 36.7647 17.15687 71.07843h-95.58824c0 9.80393 2.45098 19.60785 7.35294 24.5098l14.70588 14.70589c7.35295 2.45098 14.70589 4.90196 26.96079 4.90196 14.70588 0 29.41176-2.45098 46.56863-9.80392v29.41176zM250 1294.66666h56.37255c0-14.70587-2.45098-24.5098-7.35294-29.41175-4.90196-4.90196-12.2549-9.80393-19.60784-9.80393-7.35295 0-14.70589 2.45098-19.60785 9.80393-4.90196 7.35294-7.35294 17.15686-9.80392 29.41176zm127.45098 93.13727v-154.41177h39.21569v29.41177c4.90196-9.80393 12.2549-17.15687 22.05882-24.50981 7.35294-7.35294 19.60784-9.80392 31.86275-9.80392 7.35294 0 14.70588 0 19.60784 2.45098 4.90196 2.45098 9.80392 4.90196 14.70588 9.80392 4.90196 4.90196 7.35294 12.2549 7.35294 19.60785 7.35294-12.25491 14.70588-19.60785 24.5098-24.50981 7.35295-4.90196 17.15687-7.35294 29.41177-7.35294s22.05882 2.45098 31.86275 12.2549c7.35294 7.35294 12.2549 19.60785 12.2549 36.7647v112.7451h-39.21569v-98.03921c0-12.2549-2.45098-19.60784-4.90196-22.05882-2.45098-2.45098-7.35294-4.90196-12.2549-4.90196-7.35294 0-12.2549 2.45098-19.60784 7.35294-7.35295 4.90196-12.2549 12.2549-17.15687 19.60784v98.03922h-39.21568v-98.03922c0-12.2549-2.45098-19.60784-4.90196-22.05882-2.45099-2.45098-7.35294-4.90196-12.2549-4.90196-4.90197 0-12.2549 2.45098-17.15687 7.35294-4.90196 4.90196-12.2549 12.2549-17.15686 19.60784v98.03922l-49.01961-2.45098zm394.60784-4.90197c-19.60784 4.90197-39.21568 9.80393-56.37254 9.80393-17.15687 0-31.86275-2.45098-44.11765-9.80393-12.2549-7.35294-22.05883-17.15686-29.41177-29.41176-7.35294-14.70588-9.80392-29.41176-9.80392-44.11765 0-14.70588 2.45098-26.96078 9.80392-39.21568 4.90196-12.25491 14.70588-22.05883 24.5098-29.41177 9.80393-7.35294 24.50981-9.80392 41.66667-9.80392 19.60785 0 36.7647 7.35294 46.56863 19.60784 12.2549 12.2549 17.15686 36.7647 17.15686 71.07843H676.4706c0 9.80393 2.45098 19.60785 7.35294 24.5098l14.70588 14.70589c7.35294 2.45098 14.70588 4.90196 26.96079 4.90196 14.70588 0 29.41176-2.45098 46.56862-9.80392v26.96078zm-98.03921-88.2353h56.37255c0-14.70587-2.45098-24.5098-7.35294-29.41175-4.90197-4.90196-12.2549-9.80393-19.60785-9.80393-7.35294 0-14.70588 2.45098-19.60784 9.80393-4.90196 7.35294-7.35294 17.15686-9.80392 29.41176zm259.80392 88.2353c-19.60784 4.90197-39.21569 9.80393-56.37255 9.80393-17.15686 0-31.86274-2.45098-44.11765-9.80393-14.70588-7.35294-24.5098-17.15686-29.41176-31.86274-7.35294-14.70588-9.80392-29.41177-9.80392-44.11765 0-14.70588 2.45098-26.96078 9.80392-39.21568 4.90196-12.25491 14.70588-22.05883 24.5098-29.41177 12.2549-7.35294 24.5098-9.80392 41.66667-9.80392 19.60784 0 36.7647 7.35294 46.56863 19.60784 12.2549 12.2549 17.15686 36.7647 17.15686 71.07843h-95.58824c0 9.80393 2.45099 19.60785 7.35295 24.5098l14.70588 14.70589c7.35294 2.45098 14.70588 4.90196 26.96078 4.90196 14.70588 0 29.41177-2.45098 46.56863-9.80392v29.41176zm-98.03922-88.2353h56.37255c0-14.70587-2.45098-24.5098-7.35294-29.41175-4.90196-4.90196-12.2549-9.80393-19.60784-9.80393s-14.70588 2.45098-19.60784 9.80393c-4.90197 7.35294-7.35295 17.15686-9.80393 29.41176zm129.90197 93.13727v-154.41177h41.66666v29.41177c7.35294-12.25491 17.15686-19.60785 24.50981-24.50981 9.80392-4.90196 17.15686-7.35294 26.96078-7.35294 12.2549 0 22.05882 4.90196 31.86274 12.2549 9.80393 7.35294 12.25491 19.60785 12.25491 36.7647v110.29413h-41.66667v-100.4902c0-7.35294 0-14.70588-2.45098-17.15686-2.45098-2.45098-2.45098-4.90196-7.35294-7.35294-2.45098-2.45098-4.90196-2.45098-9.80392-2.45098s-12.25491 2.45098-17.15687 4.90196c-7.35294 4.90196-12.2549 12.2549-19.60784 22.05882v98.03922h-39.21569zm259.80392-2.45098c-9.80393 2.45098-17.15687 4.90196-24.50981 4.90196-14.70588 0-24.5098-2.45098-31.86274-4.90196-7.35294-2.451-12.2549-9.80393-17.15687-14.7059-4.90196-7.35293-4.90196-17.15685-4.90196-29.41175v-80.88235h-17.15686v-26.9608h17.15686v-26.96077l41.66667-4.90196v31.86274h31.86275v26.96079h-31.86275v75.98039c0 12.2549 2.45098 19.60784 4.90196 22.05882 4.90196 4.90196 9.80392 4.90196 17.15686 4.90196 2.45098 0 7.35294 0 12.25491-2.45098 2.45098 0 2.45098 24.5098 2.45098 24.5098zm151.96078-2.451c-19.60784 4.90198-39.21569 9.80394-56.37255 9.80394-17.15686 0-31.86274-2.45098-44.11765-9.80393-12.2549-7.35294-22.05882-17.15686-29.41176-29.41176-7.35294-14.70588-9.80392-29.41176-9.80392-44.11765 0-14.70588 2.45098-26.96078 9.80392-39.21568 4.90196-12.25491 14.70588-22.05883 24.5098-29.41177 12.25491-7.35294 24.50981-9.80392 41.66667-9.80392 19.60784 0 36.76471 7.35294 46.56863 19.60784 12.2549 12.2549 17.15686 36.7647 17.15686 71.07843h-95.58823c0 9.80393 2.45098 19.60785 7.35294 24.5098 4.90196 4.90197 9.80392 12.2549 14.70588 14.70589 7.35294 2.45098 14.70588 4.90196 26.96078 4.90196 14.70589 0 29.41177-2.45098 46.56863-9.80392v26.96078zm-95.58823-88.23528h56.37254c0-14.70588-2.45098-24.5098-7.35294-29.41176-4.90196-4.90196-12.2549-9.80393-19.60784-9.80393s-14.70588 2.45098-19.60784 9.80393c-4.90196 7.35294-9.80392 17.15686-9.80392 29.41176zm208.33333-117.64706h44.11765v129.90196c0 22.05883 4.90196 39.21569 12.2549 46.56863 7.35294 7.35294 17.15686 12.2549 31.86274 12.2549 12.2549 0 22.05883-4.90196 29.41177-12.2549 7.35294-7.35294 9.80392-22.05882 9.80392-44.11765V1177.0196h39.21569v129.90196c0 24.5098-2.45099 41.66667-9.80393 51.47059-7.35294 9.80392-14.70588 19.60784-26.96078 24.5098-12.2549 4.90197-26.96079 9.80393-44.11765 9.80393-17.15686 0-31.86274-2.45098-44.11764-7.35294-12.25491-4.90197-22.05883-14.7059-29.41177-24.50981-7.35294-12.2549-9.80392-29.41176-9.80392-53.92157-2.45098 0-2.45098-129.90196-2.45098-129.90196zm286.7647 208.33334c-9.80392 2.45098-17.15686 4.90196-24.5098 4.90196-14.70588 0-24.5098-2.45098-31.86274-4.90196-7.35295-2.451-12.25491-9.80393-17.15687-14.7059-4.90196-7.35293-4.90196-17.15685-4.90196-29.41175v-80.88235h-17.15686v-26.9608h17.15686v-26.96077l41.66667-4.90196v31.86274h31.86274v26.96079h-31.86274v75.98039c0 12.2549 2.45098 19.60784 4.90196 22.05882 4.90196 4.90196 9.80392 4.90196 17.15686 4.90196 4.90196 0 7.35294 0 12.2549-2.45098l2.45098 24.5098zm34.31373 2.45098v-154.41177h41.66667v29.41177c4.90196-9.80393 12.2549-17.15687 19.60784-24.50981 7.35294-4.90196 19.60784-9.80392 29.41176-9.80392h7.35295v36.7647c-4.90197-2.45097-9.80393-2.45097-17.15687-2.45097-7.35294 0-14.70588 2.45098-22.05882 7.35294-7.35294 4.90196-12.2549 9.80392-17.15686 19.60784v98.03922h-41.66667zm250-4.90197c-19.60784 4.90197-39.21569 9.80393-56.37255 9.80393-17.15686 0-31.86274-2.45098-44.11765-9.80393-12.2549-7.35294-22.05882-17.15686-29.41176-29.41176s-9.80392-29.41176-9.80392-44.11765c0-14.70588 2.45098-26.96078 7.35294-39.21568 4.90196-12.25491 14.70588-22.05883 24.5098-29.41177 12.2549-7.35294 24.50981-9.80392 41.66667-9.80392 19.60784 0 36.76471 7.35294 46.56863 19.60784 12.2549 12.2549 17.15686 36.7647 17.15686 71.07843h-95.58824c0 9.80393 2.45098 19.60785 7.35295 24.5098l14.70588 14.70589c7.35294 2.45098 14.70588 4.90196 26.96078 4.90196 14.70588 0 29.41177-2.45098 46.56863-9.80392l2.45098 26.96078zm-98.03922-88.2353h56.37255c0-14.70587-2.45098-24.5098-7.35294-29.41175-4.90196-4.90196-12.2549-9.80393-19.60784-9.80393s-14.70588 2.45098-19.60784 9.80393c-4.90197 7.35294-7.35295 17.15686-9.80393 29.41176zm247.54902 88.2353c-14.70588 4.90197-31.86274 7.35295-49.0196 7.35295-26.96079 0-46.56863-7.35295-58.82353-24.50981-12.25491-14.70588-19.60785-34.31372-19.60785-56.37255 0-24.5098 7.35294-44.11764 22.05883-58.82353 14.70588-14.70588 34.31372-22.05882 61.27451-22.05882 12.2549 0 26.96078 2.45098 44.11764 4.90196v29.41177c-17.15686-4.90197-29.41176-7.35295-41.66666-7.35295-14.70589 0-24.50981 4.90197-31.86275 17.15687-7.35294 9.80392-9.80392 24.5098-9.80392 36.7647 0 9.80392 2.45098 19.60785 4.90196 29.41177 4.90196 9.80392 9.80392 14.70588 17.15686 19.60784 7.35295 4.90196 14.70589 4.90196 22.05883 4.90196 12.2549 0 24.5098-2.45098 39.21568-7.35294v26.96078zm31.86275 4.90197V1164.7647h41.66667v98.03922c7.35294-12.25491 14.70588-19.60785 24.5098-24.50981 7.35294-4.90196 17.15686-7.35294 26.96078-7.35294 12.25491 0 22.05883 4.90196 31.86275 12.2549 9.80392 7.35294 12.2549 19.60785 12.2549 36.7647v110.29413h-41.66667v-100.4902c0-7.35294 0-14.70588-2.45098-17.15686-2.45098-2.45098-2.45098-4.90196-7.35294-7.35294-2.45098-2.45098-4.90196-2.45098-9.80392-2.45098s-12.2549 2.45098-17.15686 4.90196c-7.35294 4.90196-12.2549 12.2549-19.60784 22.05882v98.03922h-39.21569zM2500 1385.35295c-9.80392 2.45098-17.15686 4.90196-24.5098 4.90196-14.70589 0-24.50981-2.45098-31.86275-4.90196-7.35294-2.451-12.2549-9.80393-17.15686-14.7059-4.90196-7.35293-4.90196-17.15685-4.90196-29.41175v-80.88235h-17.15687v-26.9608h17.15687v-26.96077l41.66666-4.90196v31.86274h31.86275v26.96079h-31.86275v75.98039c0 12.2549 2.45098 19.60784 4.90196 22.05882 4.90197 4.90196 9.80393 4.90196 17.15687 4.90196 2.45098 0 7.35294 0 12.2549-2.45098l2.45098 24.5098z"/>
    </g>
</svg>
