<svg viewBox="0 0 116 57" version="1.1" xmlns="http://www.w3.org/2000/svg" xmlns:xlink="http://www.w3.org/1999/xlink">
    <!-- Generator: Sketch 60 (88103) - https://sketch.com -->
    <title>GemRdam_bloklogo_rgb</title>
    <desc>Created with Sketch.</desc>
    <defs>
        <polygon id="path-1" points="0.06 0.194103606 115.414 0.194103606 115.414 40.1306137 0.06 40.1306137"></polygon>
    </defs>
    <g id="GemRdam_bloklogo_rgb" stroke="none" stroke-width="1" fill="none" fill-rule="evenodd">
        <g id="Group-8">
            <mask id="mask-2" fill="white">
                <use xlink:href="#path-1"></use>
            </mask>
            <g id="Clip-2"></g>
            <path d="M27.521,10.28 C22.768,10.274 19.897,8.675 22.025,4.099 C22.153,3.821 22.524,3.141 21.813,3.355 C18.836,4.262 9.333,9.066 22.285,13.904 C21.036,14.165 19.539,14.324 17.582,14.322 C14.614,14.318 10.443,13.396 9.795,13.225 C8.712,12.937 8.699,13.937 9.667,15.003 C12.386,17.997 21.372,20.845 28.309,20.13 C32.144,19.734 36.541,16.87 36.541,16.87 C35.48,16.095 33.364,17.009 32.493,17.258 C29.426,18.137 27.247,17.318 26.543,16.278 C27.158,16.06 27.748,15.839 28.309,15.605 C43.284,9.338 47.966,8.591 62.386,13.081 C51.674,11.497 40.783,16.778 35.82,20.217 C33.948,21.514 34.022,22.724 35.7,22.014 C37.328,21.325 38.167,20.731 39.458,20.651 C41.101,20.548 43.123,21.629 44.174,22.131 C49.105,24.487 55.119,18.487 57.415,16.984 C59.348,15.722 61.713,14.393 63.868,15.854 C63.868,15.854 66.748,15.199 69,14.566 C42.092,0.231 34.804,10.289 27.521,10.28" id="Fill-1" fill="#20274A" mask="url(#mask-2)"></path>
            <path d="M113.625,17.373 C111.1,20.032 107.076,22.502 101.597,22.654 C95.146,22.83 91.731,22.481 83.757,18.941 C85.31,16.766 85.933,14.594 86.029,12.125 C86.158,8.798 84.682,5.921 81.683,4.075 C78.445,2.083 76.493,1.122 76.493,1.122 C78.03,1.984 79.077,4.268 79.481,7.171 C80.03,11.101 79.025,15.968 74.406,18.977 L80.437,29.56 C75.944,29.097 72.841,31.494 72.841,31.494 L78.633,36.426 C78.633,36.426 83.542,33.301 91.301,34.885 L81.894,21.868 C88.986,25.756 100.101,28.113 100.101,28.113 C100.101,28.113 95.997,28.191 92.632,27.254 C91.627,26.975 90.698,27.262 92.093,27.998 C92.443,28.183 96.659,30.335 100.7,30.765 C107.952,31.536 110.684,28.69 111.278,27.777 C112.24,26.305 110.055,27.117 106.308,27.142 C102.561,27.169 98.823,25.956 97.189,25.081 C103.449,25.011 115.003,23.85 115.404,20.119 C115.507,19.16 114.813,17.818 113.625,17.373" id="Fill-3" fill="#20274A" mask="url(#mask-2)"></path>
            <path d="M67.838,21.347 L63.868,22.3 L63.868,33.637 C63.868,33.637 60.92,35.896 57.415,35.008 L63.21,39.939 C67.473,40.845 70.104,38.244 70.104,38.244 L70.104,25.944 L67.838,21.347" id="Fill-4" fill="#20274A" mask="url(#mask-2)"></path>
            <path d="M69,14.566 C66.748,15.199 63.868,15.854 63.868,15.854 C61.713,14.393 59.348,15.722 57.415,16.984 L57.415,35.008 C60.92,35.896 63.868,33.637 63.868,33.637 L63.868,22.3 L67.838,21.347 L72.841,31.494 C72.841,31.494 75.944,29.097 80.437,29.56 L74.406,18.977 C79.025,15.968 80.03,11.101 79.481,7.171 C79.077,4.268 78.03,1.984 76.493,1.122 C75.691,0.674 74.037,-0.357 70.178,0.566 L57.415,3.625 C60.098,4.698 63.868,7.438 63.868,7.438 C63.868,7.438 63.868,7.438 69.542,6.095 C69.861,6.019 71.938,5.575 72.666,7.408 C72.841,7.852 72.959,8.337 73.024,8.833 C73.175,9.997 73.028,11.236 72.606,12.213 C72.387,12.725 72.089,13.167 71.723,13.485 C71.544,13.641 71.35,13.769 71.137,13.861 C70.658,14.069 69.878,14.32 69,14.566" id="Fill-5" fill="#219047" mask="url(#mask-2)"></path>
            <path d="M63.868,7.438 C63.868,7.438 60.098,4.698 57.415,3.625 C56.023,3.068 55.3,2.899 53.918,2.759 C51.585,2.524 49.722,4.735 51.969,4.947 C56.532,5.374 64.09,9.3 71.723,13.485 C72.089,13.167 72.387,12.725 72.606,12.213 C71.478,11.613 69.786,10.705 68.506,9.983 C68.506,9.983 71.337,9.257 73.024,8.833 C72.959,8.337 72.841,7.852 72.666,7.408 C71.938,5.575 69.861,6.019 69.542,6.095 C63.868,7.438 63.868,7.438 63.868,7.438" id="Fill-6" fill="#20274A" mask="url(#mask-2)"></path>
            <path d="M3.049,7.181 C0.836,5.849 -0.821,7.573 0.433,8.903 C1.499,10.036 1.801,9.315 4.481,10.623 C5.577,11.158 6.419,12.287 5.787,10.762 C5.046,8.977 4.358,7.97 3.049,7.181" id="Fill-7" fill="#20274A" mask="url(#mask-2)"></path>
        </g>
        <path d="M14.91,54.352 L13.319,54.352 L13.319,53.192 L16.313,53.192 L16.313,55.935 C16.023,56.217 15.602,56.464 15.048,56.679 C14.498,56.893 13.937,57 13.371,57 C12.65,57 12.024,56.85 11.487,56.547 C10.952,56.245 10.552,55.812 10.281,55.251 C10.012,54.688 9.877,54.078 9.877,53.417 C9.877,52.701 10.027,52.063 10.329,51.508 C10.628,50.949 11.068,50.523 11.648,50.226 C12.091,49.996 12.638,49.882 13.296,49.882 C14.149,49.882 14.817,50.062 15.299,50.42 C15.779,50.778 16.087,51.273 16.226,51.906 L14.843,52.163 C14.745,51.826 14.564,51.559 14.297,51.363 C14.031,51.168 13.696,51.07 13.296,51.07 C12.687,51.07 12.204,51.263 11.847,51.647 C11.488,52.032 11.31,52.604 11.31,53.362 C11.31,54.179 11.49,54.791 11.854,55.2 C12.216,55.607 12.692,55.811 13.282,55.811 C13.571,55.811 13.863,55.755 14.156,55.641 C14.45,55.526 14.699,55.389 14.91,55.225 L14.91,54.352" id="Fill-9" fill="#20274A"></path>
        <path d="M20.636,55.84 C20.495,55.952 20.321,56.009 20.116,56.009 C19.81,56.009 19.558,55.9 19.354,55.684 C19.15,55.466 19.043,55.162 19.034,54.771 L22.341,54.771 C22.36,53.76 22.153,53.008 21.725,52.517 C21.295,52.029 20.712,51.784 19.968,51.784 C19.31,51.784 18.762,52.017 18.331,52.486 C17.897,52.953 17.683,53.601 17.683,54.428 C17.683,55.118 17.846,55.691 18.176,56.145 C18.59,56.712 19.232,56.995 20.102,56.995 C20.648,56.995 21.104,56.87 21.471,56.617 C21.833,56.365 22.099,55.999 22.269,55.517 L20.954,55.297 C20.884,55.546 20.776,55.728 20.636,55.84 Z M19.334,53.108 C19.522,52.898 19.759,52.794 20.049,52.794 C20.319,52.794 20.546,52.892 20.735,53.092 C20.923,53.29 21.021,53.581 21.03,53.963 L19.058,53.963 C19.055,53.602 19.147,53.317 19.334,53.108 L19.334,53.108 Z" id="Fill-10" fill="#20274A"></path>
        <path d="M23.798,56.883 L23.798,51.896 L25.014,51.896 L25.014,52.577 C25.448,52.048 25.969,51.784 26.567,51.784 C26.886,51.784 27.163,51.85 27.397,51.98 C27.635,52.112 27.826,52.313 27.975,52.577 C28.195,52.313 28.431,52.112 28.686,51.98 C28.939,51.85 29.209,51.784 29.498,51.784 C29.865,51.784 30.174,51.858 30.426,52.008 C30.681,52.155 30.87,52.374 30.995,52.661 C31.086,52.875 31.13,53.219 31.13,53.695 L31.13,56.883 L29.813,56.883 L29.813,54.032 C29.813,53.538 29.767,53.219 29.676,53.074 C29.554,52.887 29.366,52.794 29.112,52.794 C28.928,52.794 28.754,52.85 28.592,52.963 C28.428,53.074 28.311,53.239 28.24,53.457 C28.168,53.675 28.133,54.019 28.133,54.488 L28.133,56.883 L26.811,56.883 L26.811,54.15 C26.811,53.665 26.787,53.351 26.742,53.211 C26.695,53.069 26.621,52.966 26.524,52.896 C26.423,52.827 26.29,52.794 26.122,52.794 C25.918,52.794 25.733,52.847 25.572,52.958 C25.409,53.067 25.291,53.225 25.224,53.431 C25.154,53.638 25.117,53.981 25.117,54.461 L25.117,56.883 L23.798,56.883" id="Fill-11" fill="#20274A"></path>
        <path d="M35.496,55.84 C35.354,55.952 35.18,56.009 34.974,56.009 C34.671,56.009 34.417,55.9 34.214,55.684 C34.011,55.466 33.905,55.162 33.896,54.771 L37.2,54.771 C37.218,53.76 37.013,53.008 36.583,52.517 C36.155,52.029 35.571,51.784 34.827,51.784 C34.17,51.784 33.622,52.017 33.19,52.486 C32.757,52.953 32.542,53.601 32.542,54.428 C32.542,55.118 32.704,55.691 33.035,56.145 C33.449,56.712 34.093,56.995 34.96,56.995 C35.508,56.995 35.965,56.87 36.33,56.617 C36.69,56.365 36.958,55.999 37.129,55.517 L35.814,55.297 C35.745,55.546 35.637,55.728 35.496,55.84 Z M34.194,53.108 C34.382,52.898 34.618,52.794 34.909,52.794 C35.177,52.794 35.405,52.892 35.594,53.092 C35.783,53.29 35.881,53.581 35.89,53.963 L33.918,53.963 C33.915,53.602 34.008,53.317 34.194,53.108 L34.194,53.108 Z" id="Fill-12" fill="#20274A"></path>
        <path d="M41.325,55.84 C41.183,55.952 41.008,56.009 40.802,56.009 C40.499,56.009 40.245,55.9 40.044,55.684 C39.839,55.466 39.733,55.162 39.724,54.771 L43.029,54.771 C43.047,53.76 42.842,53.008 42.41,52.517 C41.984,52.029 41.398,51.784 40.656,51.784 C39.997,51.784 39.45,52.017 39.018,52.486 C38.586,52.953 38.369,53.601 38.369,54.428 C38.369,55.118 38.533,55.691 38.864,56.145 C39.278,56.712 39.921,56.995 40.786,56.995 C41.336,56.995 41.792,56.87 42.158,56.617 C42.521,56.365 42.79,55.999 42.959,55.517 L41.644,55.297 C41.571,55.546 41.466,55.728 41.325,55.84 Z M40.023,53.108 C40.21,52.898 40.448,52.794 40.737,52.794 C41.004,52.794 41.235,52.892 41.423,53.092 C41.612,53.29 41.708,53.581 41.717,53.963 L39.747,53.963 C39.743,53.602 39.835,53.317 40.023,53.108 L40.023,53.108 Z" id="Fill-13" fill="#20274A"></path>
        <path d="M49.12,53.784 L49.12,56.883 L47.801,56.883 L47.801,54.339 C47.801,53.799 47.772,53.451 47.718,53.293 C47.66,53.135 47.568,53.012 47.442,52.924 C47.314,52.837 47.163,52.794 46.982,52.794 C46.755,52.794 46.55,52.855 46.369,52.981 C46.185,53.106 46.062,53.272 45.995,53.478 C45.928,53.685 45.896,54.067 45.896,54.624 L45.896,56.883 L44.575,56.883 L44.575,51.896 L45.8,51.896 L45.8,52.628 C46.236,52.064 46.784,51.784 47.444,51.784 C47.735,51.784 47.999,51.836 48.239,51.94 C48.483,52.046 48.665,52.179 48.787,52.343 C48.912,52.506 48.998,52.69 49.048,52.896 C49.097,53.104 49.12,53.399 49.12,53.784" id="Fill-14" fill="#20274A"></path>
        <path d="M65.106,54.01 L65.389,54.01 C65.706,54.01 65.94,54.035 66.089,54.087 C66.233,54.139 66.373,54.233 66.506,54.374 C66.638,54.512 66.882,54.85 67.237,55.385 L68.243,56.883 L69.904,56.883 L69.064,55.539 C68.732,55.004 68.467,54.632 68.272,54.423 C68.078,54.213 67.826,54.021 67.528,53.845 C68.134,53.758 68.586,53.546 68.892,53.209 C69.193,52.872 69.348,52.445 69.348,51.93 C69.348,51.523 69.245,51.16 69.046,50.844 C68.847,50.528 68.58,50.309 68.245,50.185 C67.911,50.062 67.378,49.999 66.643,49.999 L63.715,49.999 L63.715,56.883 L65.106,56.883 L65.106,54.01 Z M66.19,51.164 C66.754,51.164 67.092,51.172 67.205,51.187 C67.43,51.226 67.604,51.314 67.729,51.459 C67.851,51.601 67.913,51.786 67.913,52.018 C67.913,52.225 67.867,52.397 67.772,52.535 C67.68,52.674 67.549,52.768 67.384,52.825 C67.216,52.882 66.799,52.91 66.135,52.91 L65.106,52.91 L65.106,51.164 L66.19,51.164 L66.19,51.164 Z" id="Fill-15" fill="#20274A"></path>
        <path d="M71.022,55.776 C71.239,56.176 71.554,56.478 71.97,56.684 C72.384,56.893 72.82,56.995 73.277,56.995 C74.017,56.995 74.628,56.746 75.115,56.252 C75.601,55.755 75.843,55.13 75.843,54.376 C75.843,53.627 75.604,53.008 75.124,52.517 C74.638,52.029 74.023,51.784 73.269,51.784 C72.779,51.784 72.336,51.892 71.939,52.107 C71.544,52.324 71.239,52.636 71.022,53.046 C70.808,53.457 70.698,53.88 70.698,54.32 C70.698,54.892 70.808,55.378 71.022,55.776 Z M72.403,53.254 C72.639,52.991 72.926,52.858 73.271,52.858 C73.615,52.858 73.905,52.991 74.138,53.254 C74.372,53.517 74.486,53.892 74.486,54.38 C74.486,54.881 74.372,55.264 74.138,55.525 C73.905,55.789 73.615,55.92 73.271,55.92 C72.926,55.92 72.639,55.789 72.403,55.525 C72.169,55.264 72.052,54.884 72.052,54.39 C72.052,53.895 72.169,53.517 72.403,53.254 L72.403,53.254 Z" id="Fill-16" fill="#20274A"></path>
        <path d="M78.744,51.896 L79.646,51.896 L79.646,52.948 L78.744,52.948 L78.744,54.958 C78.744,55.364 78.752,55.601 78.77,55.67 C78.785,55.736 78.828,55.791 78.887,55.835 C78.949,55.879 79.023,55.901 79.109,55.901 C79.23,55.901 79.409,55.859 79.642,55.774 L79.754,56.799 C79.445,56.93 79.1,56.995 78.711,56.995 C78.473,56.995 78.259,56.955 78.069,56.876 C77.877,56.796 77.735,56.692 77.646,56.565 C77.557,56.438 77.494,56.268 77.461,56.052 C77.433,55.898 77.418,55.588 77.418,55.123 L77.418,52.948 L76.813,52.948 L76.813,51.896 L77.418,51.896 L77.418,50.904 L78.744,50.136 L78.744,51.896" id="Fill-17" fill="#20274A"></path>
        <path d="M82.797,51.896 L83.698,51.896 L83.698,52.948 L82.797,52.948 L82.797,54.958 C82.797,55.364 82.807,55.601 82.822,55.67 C82.84,55.736 82.879,55.791 82.942,55.835 C83.002,55.879 83.075,55.901 83.162,55.901 C83.283,55.901 83.461,55.859 83.691,55.774 L83.807,56.799 C83.499,56.93 83.152,56.995 82.764,56.995 C82.525,56.995 82.311,56.955 82.122,56.876 C81.929,56.796 81.788,56.692 81.7,56.565 C81.609,56.438 81.548,56.268 81.514,56.052 C81.486,55.898 81.473,55.588 81.473,55.123 L81.473,52.948 L80.865,52.948 L80.865,51.896 L81.473,51.896 L81.473,50.904 L82.797,50.136 L82.797,51.896" id="Fill-18" fill="#20274A"></path>
        <path d="M87.78,55.84 C87.641,55.952 87.466,56.009 87.259,56.009 C86.957,56.009 86.703,55.9 86.5,55.684 C86.297,55.466 86.19,55.162 86.181,54.771 L89.484,54.771 C89.504,53.76 89.301,53.008 88.871,52.517 C88.441,52.029 87.855,51.784 87.115,51.784 C86.453,51.784 85.906,52.017 85.475,52.486 C85.044,52.953 84.827,53.601 84.827,54.428 C84.827,55.118 84.992,55.691 85.32,56.145 C85.737,56.712 86.378,56.995 87.246,56.995 C87.792,56.995 88.249,56.87 88.615,56.617 C88.979,56.365 89.246,55.999 89.415,55.517 L88.101,55.297 C88.028,55.546 87.924,55.728 87.78,55.84 Z M86.48,53.108 C86.668,52.898 86.906,52.794 87.194,52.794 C87.461,52.794 87.693,52.892 87.88,53.092 C88.068,53.29 88.166,53.581 88.174,53.963 L86.202,53.963 C86.199,53.602 86.293,53.317 86.48,53.108 L86.48,53.108 Z" id="Fill-19" fill="#20274A"></path>
        <path d="M52.321,51.896 L53.228,51.896 L53.228,52.948 L52.321,52.948 L52.321,54.958 C52.321,55.364 52.331,55.601 52.348,55.67 C52.364,55.736 52.405,55.791 52.468,55.835 C52.527,55.879 52.603,55.901 52.687,55.901 C52.812,55.901 52.987,55.859 53.223,55.774 L53.335,56.799 C53.025,56.93 52.678,56.995 52.29,56.995 C52.054,56.995 51.839,56.955 51.648,56.876 C51.456,56.796 51.318,56.692 51.228,56.565 C51.138,56.438 51.077,56.268 51.041,56.052 C51.015,55.898 51,55.588 51,55.123 L51,52.948 L50.396,52.948 L50.396,51.896 L51,51.896 L51,50.904 L52.321,50.136 L52.321,51.896" id="Fill-20" fill="#20274A"></path>
        <path d="M57.308,55.84 C57.166,55.952 56.995,56.009 56.787,56.009 C56.482,56.009 56.229,55.9 56.026,55.684 C55.821,55.466 55.718,55.162 55.708,54.771 L59.011,54.771 C59.031,53.76 58.825,53.008 58.396,52.517 C57.968,52.029 57.384,51.784 56.641,51.784 C55.979,51.784 55.435,52.017 55.002,52.486 C54.569,52.953 54.355,53.601 54.355,54.428 C54.355,55.118 54.521,55.691 54.847,56.145 C55.264,56.712 55.906,56.995 56.772,56.995 C57.32,56.995 57.776,56.87 58.14,56.617 C58.507,56.365 58.773,55.999 58.941,55.517 L57.628,55.297 C57.556,55.546 57.449,55.728 57.308,55.84 Z M56.006,53.108 C56.194,52.898 56.433,52.794 56.722,52.794 C56.99,52.794 57.219,52.892 57.406,53.092 C57.595,53.29 57.693,53.581 57.704,53.963 L55.73,53.963 C55.727,53.602 55.818,53.317 56.006,53.108 L56.006,53.108 Z" id="Fill-21" fill="#20274A"></path>
        <path d="M92.305,55.343 L92.305,56.883 L90.984,56.883 L90.984,51.896 L92.209,51.896 L92.209,52.605 C92.421,52.27 92.609,52.05 92.777,51.944 C92.944,51.838 93.134,51.784 93.347,51.784 C93.646,51.784 93.936,51.867 94.216,52.032 L93.808,53.184 C93.584,53.039 93.377,52.967 93.187,52.967 C93.002,52.967 92.849,53.017 92.717,53.12 C92.589,53.222 92.487,53.405 92.414,53.671 C92.342,53.937 92.305,54.495 92.305,55.343" id="Fill-22" fill="#20274A"></path>
        <path d="M98.594,49.999 L98.594,52.478 C98.188,52.016 97.707,51.784 97.149,51.784 C96.542,51.784 96.039,52.004 95.642,52.443 C95.243,52.883 95.046,53.526 95.046,54.371 C95.046,55.197 95.249,55.841 95.658,56.304 C96.068,56.765 96.559,56.995 97.132,56.995 C97.412,56.995 97.692,56.926 97.968,56.786 C98.247,56.647 98.486,56.436 98.691,56.149 L98.691,56.883 L99.916,56.883 L99.916,49.999 L98.594,49.999 Z M96.711,53.168 C96.921,52.917 97.184,52.794 97.498,52.794 C97.822,52.794 98.084,52.919 98.293,53.172 C98.497,53.423 98.602,53.835 98.602,54.408 C98.602,54.921 98.495,55.308 98.283,55.566 C98.067,55.824 97.812,55.952 97.507,55.952 C97.125,55.952 96.827,55.781 96.615,55.437 C96.467,55.199 96.394,54.813 96.394,54.281 C96.394,53.787 96.499,53.415 96.711,53.168 L96.711,53.168 Z" id="Fill-23" fill="#20274A"></path>
        <path d="M103.001,52.932 C103.133,52.839 103.317,52.794 103.549,52.794 C103.899,52.794 104.135,52.846 104.259,52.955 C104.386,53.063 104.448,53.244 104.448,53.498 L104.448,53.628 C104.209,53.729 103.783,53.836 103.166,53.953 C102.707,54.04 102.36,54.143 102.117,54.26 C101.872,54.379 101.686,54.547 101.551,54.768 C101.415,54.988 101.35,55.24 101.35,55.521 C101.35,55.946 101.496,56.299 101.793,56.577 C102.088,56.856 102.493,56.995 103.007,56.995 C103.297,56.995 103.569,56.94 103.826,56.831 C104.085,56.722 104.325,56.557 104.553,56.338 C104.563,56.363 104.575,56.416 104.598,56.493 C104.646,56.665 104.69,56.796 104.726,56.883 L106.03,56.883 C105.913,56.645 105.835,56.423 105.792,56.214 C105.751,56.006 105.731,55.683 105.731,55.244 L105.745,53.704 C105.745,53.132 105.687,52.738 105.566,52.522 C105.449,52.309 105.248,52.133 104.961,51.993 C104.67,51.853 104.232,51.784 103.646,51.784 C102.997,51.784 102.51,51.9 102.181,52.131 C101.852,52.362 101.62,52.72 101.483,53.202 L102.683,53.417 C102.765,53.186 102.869,53.023 103.001,52.932 Z M104.398,55.394 C104.346,55.566 104.242,55.713 104.081,55.831 C103.866,55.987 103.64,56.065 103.402,56.065 C103.188,56.065 103.013,55.999 102.874,55.863 C102.737,55.728 102.669,55.57 102.669,55.385 C102.669,55.197 102.756,55.043 102.928,54.92 C103.038,54.845 103.28,54.769 103.646,54.689 C104.013,54.611 104.278,54.544 104.448,54.488 L104.448,54.752 C104.448,55.067 104.431,55.282 104.398,55.394 L104.398,55.394 Z" id="Fill-24" fill="#20274A"></path>
        <path d="M107.428,56.883 L107.428,51.896 L108.643,51.896 L108.643,52.577 C109.079,52.048 109.597,51.784 110.197,51.784 C110.515,51.784 110.793,51.85 111.029,51.98 C111.261,52.112 111.455,52.313 111.607,52.577 C111.823,52.313 112.061,52.112 112.316,51.98 C112.568,51.85 112.838,51.784 113.128,51.784 C113.496,51.784 113.804,51.858 114.058,52.008 C114.312,52.155 114.499,52.374 114.623,52.661 C114.715,52.875 114.759,53.219 114.759,53.695 L114.759,56.883 L113.44,56.883 L113.44,54.032 C113.44,53.538 113.395,53.219 113.305,53.074 C113.183,52.887 112.994,52.794 112.741,52.794 C112.557,52.794 112.386,52.85 112.221,52.963 C112.057,53.074 111.941,53.239 111.868,53.457 C111.795,53.675 111.761,54.019 111.761,54.488 L111.761,56.883 L110.442,56.883 L110.442,54.15 C110.442,53.665 110.418,53.351 110.371,53.211 C110.325,53.069 110.251,52.966 110.15,52.896 C110.054,52.827 109.92,52.794 109.75,52.794 C109.547,52.794 109.364,52.847 109.2,52.958 C109.04,53.067 108.92,53.225 108.852,53.431 C108.78,53.638 108.745,53.981 108.745,54.461 L108.745,56.883 L107.428,56.883" id="Fill-25" fill="#20274A"></path>
    </g>
</svg>